<?xml version="1.0" encoding="UTF-8" standalone="no"?>
<!-- Created with Inkscape (http://www.inkscape.org/) -->

<svg
   width="2400"
   height="300"
   viewBox="0 0 634.99998 79.374999"
   version="1.1"
   id="svg1"
   xml:space="preserve"
   inkscape:version="1.4.3 (0d15f75, 2025-12-25)"
   sodipodi:docname="waves.svg"
   xmlns:inkscape="http://www.inkscape.org/namespaces/inkscape"
   xmlns:sodipodi="http://sodipodi.sourceforge.net/DTD/sodipodi-0.dtd"
   xmlns="http://www.w3.org/2000/svg"
   xmlns:svg="http://www.w3.org/2000/svg"><sodipodi:namedview
     id="namedview1"
     pagecolor="#ffffff"
     bordercolor="#000000"
     borderopacity="0.25"
     inkscape:showpageshadow="2"
     inkscape:pageopacity="0.0"
     inkscape:pagecheckerboard="0"
     inkscape:deskcolor="#d1d1d1"
     inkscape:document-units="mm"
     inkscape:zoom="50.507117"
     inkscape:cx="-0.22769068"
     inkscape:cy="261.28991"
     inkscape:window-width="1920"
     inkscape:window-height="1094"
     inkscape:window-x="-11"
     inkscape:window-y="-11"
     inkscape:window-maximized="1"
     inkscape:current-layer="layer1" /><defs
     id="defs1"><clipPath
       clipPathUnits="userSpaceOnUse"
       id="clipPath2"><rect
         style="fill:#000000;stroke:#ffffff;stroke-width:0.117971;stroke-linejoin:round"
         id="rect2"
         width="388.04779"
         height="98.354065"
         x="366.82391"
         y="-3.4214942" /></clipPath><clipPath
       clipPathUnits="userSpaceOnUse"
       id="clipPath3"><rect
         style="fill:#000000;stroke:#ffffff;stroke-width:0.02;stroke-linejoin:round"
         id="rect4"
         width="382.89761"
         height="87.808998"
         x="367.99588"
         y="-1.4207367" /></clipPath><clipPath
       clipPathUnits="userSpaceOnUse"
       id="clipPath6"><rect
         style="fill:#000000;stroke:#ffffff;stroke-width:0.0844021;stroke-linejoin:round"
         id="rect6"
         width="269.30542"
         height="95.770744"
         x="366.91922"
         y="-10.829596" /></clipPath><clipPath
       clipPathUnits="userSpaceOnUse"
       id="clipPath83"><rect
         style="fill:#000000;stroke:#ffffff;stroke-width:0.02;stroke-linejoin:round"
         id="rect84"
         width="756.72443"
         height="117.58626"
         x="0"
         y="0" /></clipPath><clipPath
       clipPathUnits="userSpaceOnUse"
       id="clipPath83-3"><rect
         style="fill:#000000;stroke:#ffffff;stroke-width:0.02;stroke-linejoin:round"
         id="rect84-2"
         width="756.72443"
         height="117.58626"
         x="0"
         y="0" /></clipPath><clipPath
       clipPathUnits="userSpaceOnUse"
       id="clipPath86"><rect
         style="fill:#000000;stroke:#ffffff;stroke-width:0.0208815;stroke-linejoin:round"
         id="rect86"
         width="699.82703"
         height="146.03366"
         x="-76.944122"
         y="-43.6777" /></clipPath></defs><g
     inkscape:label="Layer 1"
     inkscape:groupmode="layer"
     id="layer1"><path
       id="path6-1-1"
       clip-path="url(#clipPath83)"
       style="fill:#000000;stroke-width:1.0033"
       transform="scale(1.0195838,1)"
       d="m 444.75687,4.8374308 v 5.168e-4 c -8.11557,-0.272908 -14.83094,3.4983656 -18.62733,10.4629274 -3.59028,6.586482 -4.88391,12.287701 -5.25693,23.16241 -0.3208,9.352517 -1.18836,13.2522 -4.54685,20.443714 -1.75337,3.754489 -4.0381,6.304072 -7.03492,7.84965 -1.3336,0.687794 -1.44325,0.705322 -4.28228,0.703316 -10.89167,-0.0071 -17.0546,-2.308588 -19.23705,-7.184058 -0.85953,-1.920151 -2.1328,-6.109624 -2.57626,-8.479585 -0.43521,-2.325827 -0.33771,-5.774368 0.21287,-7.555612 0.35131,-1.136541 2.02746,-4.028193 2.87986,-4.967655 1.1876,-1.308879 4.27142,-3.388238 5.68774,-3.834908 2.86838,-0.904608 6.83888,-0.768127 8.6198,0.296106 0.80468,0.480863 2.05115,1.95459 2.45766,2.906282 0.49506,1.159036 0.33145,2.628743 -0.42524,3.834392 -1.02215,1.628621 -1.52564,2.099096 -2.24833,2.099096 -1.26319,0 -2.41411,-0.918903 -3.25897,-2.602425 -0.36858,-0.734447 -0.46883,-1.344904 -0.46883,-2.840136 0,-2.367133 -0.3361,-2.665702 -1.48098,-1.317233 -1.07949,1.271475 -1.6305,2.907137 -1.6305,4.843632 0,1.366529 0.10855,1.838413 0.68271,2.987415 1.1708,2.342953 3.15715,3.595129 5.70396,3.595129 2.68834,0 5.41184,-2.18687 7.08864,-5.692159 0.92086,-1.925027 0.96857,-2.124119 0.96857,-4.014742 0,-4.159864 -1.52884,-7.064043 -4.88389,-9.274369 -2.25789,-1.487507 -4.38044,-1.987228 -8.34814,-1.965255 -2.71777,0.01504 -3.33838,0.08988 -4.78861,0.576709 -0.91625,0.307582 -2.33808,0.94936 -3.16014,1.42627 -2.77633,1.610662 -5.69442,4.819321 -9.97762,10.971423 -1.42457,2.046162 -3.36525,6.281834 -5.45815,11.912968 -0.01,0.05089 -0.0195,0.101807 -0.0304,0.152445 -0.0463,0.221406 -0.0962,0.443093 -0.16979,0.657325 -0.0598,0.168989 -0.12457,0.335939 -0.1926,0.501778 -0.0583,0.143712 -0.11598,0.288002 -0.16675,0.434599 -0.0561,0.160264 -0.11021,0.320989 -0.16218,0.482658 -0.055,0.174247 -0.10228,0.350308 -0.16067,0.523482 -0.0551,0.160833 -0.11283,0.321024 -0.17283,0.480074 -0.0626,0.156547 -0.11916,0.315204 -0.18297,0.471289 -0.0329,0.07815 -0.0687,0.155484 -0.10289,0.233061 -0.0106,0.04044 -0.022,0.08046 -0.0345,0.120406 -0.0143,0.04324 -0.0246,0.08762 -0.0375,0.131258 -0.0145,0.05309 -0.0289,0.106174 -0.0456,0.158646 -0.0156,0.04967 -0.0315,0.09935 -0.0492,0.148312 -0.004,0.01178 -0.009,0.0234 -0.0132,0.03514 -0.005,0.03831 -0.0138,0.0791 -0.0269,0.121956 -0.003,0.01134 -0.006,0.02273 -0.0101,0.03411 -0.005,0.06503 -0.0238,0.137975 -0.0583,0.217041 -0.008,0.01809 -0.016,0.03615 -0.0238,0.05426 -0.0279,0.09033 -0.0568,0.180177 -0.0902,0.268717 -0.0291,0.07941 -0.0585,0.158702 -0.0887,0.237712 -0.0326,0.07709 -0.0695,0.1527 -0.11302,0.224276 -0.0159,0.02533 -0.0317,0.05056 -0.0482,0.07545 -0.006,0.0132 -0.0105,0.02607 -0.0162,0.03927 -0.0773,0.165188 -0.16384,0.326087 -0.26356,0.479041 -0.075,0.119128 -0.14999,0.238171 -0.23517,0.350366 -0.008,0.01082 -0.0167,0.02176 -0.0248,0.03256 -0.009,0.01664 -0.0169,0.03398 -0.0253,0.05116 -0.0178,0.03723 -0.0354,0.0746 -0.0547,0.111104 -0.0255,0.04875 -0.0545,0.09555 -0.0862,0.14056 -0.0283,0.03834 -0.0576,0.07578 -0.0902,0.110588 -0.0157,0.01599 -0.0291,0.03367 -0.0441,0.05271 -0.0174,0.02178 -0.0335,0.0447 -0.0507,0.06666 -0.0236,0.03385 -0.045,0.06885 -0.0699,0.101803 -0.0244,0.03112 -0.0493,0.06261 -0.075,0.0925 -0.0266,0.03051 -0.053,0.05972 -0.0826,0.08733 -10e-4,0.0011 -0.003,0.003 -0.004,0.0041 l -5.1e-4,5.17e-4 h -5e-4 v 5.16e-4 l -5.1e-4,5.17e-4 v 5.17e-4 l -5.1e-4,5.17e-4 -5.1e-4,5.17e-4 c -0.0402,0.04086 -0.0817,0.08082 -0.12113,0.122473 -0.0149,0.01596 -0.03,0.03121 -0.0456,0.04651 l -5e-4,5.17e-4 -5.1e-4,5.17e-4 v 5.17e-4 5.17e-4 l -5.1e-4,5.16e-4 -5e-4,5.17e-4 -5.1e-4,5.17e-4 -5.1e-4,5.17e-4 -5e-4,5.16e-4 c -0.0221,0.02159 -0.0453,0.04247 -0.0684,0.06305 -0.002,0.0018 -0.004,0.0039 -0.006,0.0057 -0.0236,0.02202 -0.0466,0.04361 -0.071,0.0646 -0.0328,0.02876 -0.067,0.05629 -0.10136,0.0832 -0.0256,0.01804 -0.0496,0.03783 -0.074,0.05736 -0.0243,0.01921 -0.047,0.04246 -0.071,0.06201 -0.0291,0.02863 -0.0585,0.05652 -0.0887,0.08423 -0.0358,0.03272 -0.0718,0.06528 -0.1115,0.09353 -0.0329,0.02328 -0.0668,0.04588 -0.10035,0.06821 -0.0214,0.01296 -0.0397,0.03124 -0.0613,0.04392 v -5.17e-4 c -0.0345,0.03114 -0.0708,0.06176 -0.10745,0.09043 -0.0427,0.03398 -0.0847,0.06876 -0.13127,0.09767 -0.0433,0.02761 -0.0872,0.05447 -0.13127,0.08062 -0.0327,0.02001 -0.0646,0.03954 -0.0958,0.06201 -0.0329,0.02253 -0.062,0.04937 -0.0953,0.07183 -0.0354,0.02481 -0.0712,0.04951 -0.10897,0.0708 -0.0422,0.02908 -0.0854,0.05734 -0.12874,0.08475 -0.0384,0.02371 -0.0772,0.04704 -0.11708,0.06821 -0.0437,0.02629 -0.0881,0.05076 -0.1333,0.07441 -0.0404,0.02371 -0.0813,0.04741 -0.12063,0.07286 -0.0466,0.03159 -0.0918,0.06558 -0.13938,0.0956 -0.0517,0.03103 -0.10427,0.0602 -0.15864,0.0863 -0.045,0.02187 -0.0893,0.04345 -0.13583,0.06201 -0.046,0.02173 -0.0935,0.04117 -0.14039,0.06098 -0.0422,0.01668 -0.082,0.03737 -0.12367,0.05529 -0.0363,0.01658 -0.0716,0.03584 -0.10745,0.05323 -0.052,0.03154 -0.10569,0.0623 -0.16067,0.08837 -0.0542,0.02509 -0.10984,0.04747 -0.16523,0.06976 -0.0493,0.01855 -0.0985,0.03495 -0.148,0.05323 -0.0414,0.01463 -0.082,0.03224 -0.12316,0.04754 -0.0407,0.01719 -0.0808,0.03427 -0.12113,0.05271 -0.051,0.02482 -0.10301,0.04785 -0.15408,0.07235 -0.0617,0.02726 -0.12503,0.05211 -0.18753,0.07751 -0.0683,0.02682 -0.13615,0.05298 -0.20578,0.07648 -0.0642,0.0219 -0.1297,0.04218 -0.19361,0.06511 -0.0609,0.02053 -0.12074,0.04196 -0.18094,0.0646 -0.0656,0.02402 -0.13104,0.04983 -0.19615,0.07493 -0.0717,0.0276 -0.14347,0.05483 -0.21591,0.08062 -0.0795,0.02708 -0.15959,0.05264 -0.24075,0.07441 -0.0743,0.02003 -0.14876,0.03956 -0.22351,0.05839 -0.0675,0.01634 -0.13379,0.03506 -0.20071,0.05374 -0.063,0.01624 -0.12645,0.0335 -0.18956,0.04909 -0.0686,0.01754 -0.13757,0.03541 -0.20679,0.05013 -0.0686,0.01382 -0.13736,0.02588 -0.20628,0.03772 -0.0719,0.0116 -0.14348,0.02279 -0.21592,0.03101 -0.0695,0.0075 -0.13898,0.01543 -0.20881,0.02015 -0.062,0.0032 -0.1238,0.0082 -0.18601,0.0067 h -0.15459 -0.13735 -0.11252 -0.10086 -0.0796 c -0.0222,-1e-6 -0.0428,5e-6 -0.0649,0 -0.022,-7e-6 -0.043,3.6e-5 -0.0649,0 -0.0257,-4.6e-5 -0.0518,-3.08e-4 -0.0775,-5.16e-4 -0.0334,-3.01e-4 -0.0654,-2.43e-4 -0.0988,-0.0021 -0.0405,-0.0016 -0.0808,-0.0037 -0.12113,-0.0078 -0.0273,-0.0027 -0.0504,-0.0045 -0.0801,-0.0031 -0.0393,-5.1e-5 -0.0787,-2.43e-4 -0.11809,-5.17e-4 -0.0129,-1.33e-4 -0.0271,-3.36e-4 -0.04,-5.17e-4 l -2.62948,0.08785 c -3.01588,0.100911 -3.19325,0.08216 -4.38973,-0.465605 -1.72903,-0.791574 -3.49813,-2.524543 -4.22045,-4.134114 -1.14974,-2.561949 -1.54615,-7.931223 -0.9042,-12.224577 0.46735,-3.125602 1.63411,-5.337602 3.47286,-6.581511 0.84563,-0.572069 1.15028,-0.648613 2.51747,-0.634586 1.24333,0.01275 1.84545,0.150696 2.99998,0.68833 0.79442,0.369942 1.72972,0.941543 2.07854,1.270723 1.27868,1.206699 1.60571,0.04161 0.69133,-2.465482 -0.47072,-1.290624 -0.87013,-1.92089 -1.85655,-2.932121 -1.7076,-1.750549 -3.43254,-2.371295 -6.46878,-2.328023 -2.83138,0.04035 -3.6043,0.256515 -6.3588,1.780253 -4.39828,2.433053 -7.06141,5.492715 -9.25842,10.634493 -0.84393,1.975111 -1.31657,3.912348 -1.84083,7.554061 -0.84608,5.876994 -2.57315,9.061341 -5.62591,10.369909 -0.87931,0.376916 -1.19612,0.406074 -2.30155,0.211357 -2.8915,-0.509329 -6.21676,-2.880465 -8.21383,-5.85649 -2.11968,-3.158711 -3.74629,-6.954613 -5.07092,-11.835453 -0.48362,-1.781981 -2.75538,-7.277601 -4.04153,-9.777181 -0.37733,-0.733313 -1.29937,-2.233677 -2.04915,-3.333647 -3.18723,-4.675891 -4.57117,-7.653462 -4.57117,-9.836609 0,-2.590927 0.85368,-3.874604 2.85299,-4.28966 1.06971,-0.222071 1.45722,-0.195118 2.95082,0.204638 3.52568,0.943643 4.52457,1.796208 4.38212,3.740857 -0.0934,1.274581 0.30571,1.627307 1.41509,1.251087 0.40264,-0.136542 1.30964,-0.422491 2.01519,-0.635621 2.42312,-0.731952 3.08155,-2.196182 2.24885,-5.000211 -0.29432,-0.991061 -0.65523,-1.497468 -2.05574,-2.888196 -1.45268,-1.442544 -1.95602,-1.787737 -3.47641,-2.383317 -3.98064,-1.559318 -4.79005,-1.717725 -8.77692,-1.717725 -3.54001,0 -3.74402,0.02531 -5.91227,0.729672 -3.6151,1.174357 -5.07963,2.323733 -6.43026,5.047754 -1.12018,2.259252 -1.39877,4.51295 -0.8971,7.257954 0.37688,2.062209 0.54111,2.675449 1.62948,6.068881 0.64235,2.00276 3.03162,6.898127 4.66646,9.56169 0.60012,0.977751 1.48953,2.427603 1.97667,3.222025 1.80378,2.941565 3.63353,7.787138 3.63353,9.623186 0,3.302471 -2.75873,8.001664 -5.74958,9.7932 -0.6876,0.411883 -2.10049,1.120528 -3.13935,1.574581 -1.03886,0.454052 -2.58844,1.155463 -3.44397,1.559078 -1.86272,0.878774 -3.16289,1.098377 -6.5666,1.10846 -2.49373,0.0074 -2.59663,-0.01147 -3.61275,-0.672827 -1.47446,-0.959661 -3.39952,-2.869141 -4.10792,-4.07417 -0.55197,-0.938867 -0.60157,-1.215401 -0.59655,-3.356385 0.008,-3.58098 1.05175,-6.030246 3.07702,-7.21713 0.82371,-0.482726 1.22434,-0.560173 2.88137,-0.560173 1.1351,0 1.92599,0.09065 1.92599,0.221692 0,0.475338 -0.87937,1.060102 -2.17941,1.449524 -0.74742,0.223886 -1.41231,0.545202 -1.47692,0.713652 -0.1669,0.434951 0.39341,1.642449 1.01671,2.192114 0.89372,0.788141 2.29998,1.199927 4.09526,1.199927 2.67031,0 3.91085,-0.800183 4.44751,-2.869076 0.36371,-1.402166 0.0741,-3.71362 -0.61987,-4.948535 -0.46138,-0.820937 -1.76856,-1.845457 -3.5058,-2.747636 -1.11743,-0.580308 -5.34829,-0.715247 -7.39325,-0.235644 -2.1334,0.500343 -3.15504,1.088724 -5.0172,2.889229 -2.05571,1.987646 -3.42996,4.279734 -4.82054,8.04137 -1.70472,4.6114 -3.64396,8.423545 -5.11146,10.046415 -1.36767,1.512484 -3.2615,2.908277 -4.80078,3.538802 -1.49076,0.610654 -5.02489,0.506155 -7.81139,-0.230477 -2.71033,-0.716497 -6.10914,-2.52576 -7.10385,-3.781681 -1.29968,-1.640973 -1.55543,-2.85817 -1.66395,-7.925615 -0.0537,-2.50617 0.006,-5.606371 0.13279,-6.888985 0.2121,-2.144232 0.32244,-2.513294 1.36846,-4.58835 1.43251,-2.841778 2.2031,-3.468226 4.4171,-3.591512 1.04563,-0.05822 1.98669,0.06027 3.24985,0.41031 0.97775,0.270947 2.12671,0.505458 2.55447,0.520899 0.71885,0.02596 0.78301,-0.02585 0.84642,-0.680579 0.10247,-1.058016 -0.96931,-3.116628 -2.29243,-4.402832 -1.32128,-1.284422 -3.93259,-2.799081 -5.80837,-3.369303 -0.95284,-0.289659 -2.04324,-0.394532 -4.07803,-0.392224 -2.60741,0.0029 -2.88857,0.04747 -4.58688,0.722953 -3.93282,1.564237 -7.73761,5.584109 -9.60662,10.150285 -0.63364,1.548011 -1.13681,4.236266 -1.15306,6.15673 -0.0187,2.202971 -0.26797,4.270053 -0.86467,7.175789 -0.84365,4.108331 -1.99072,5.915491 -5.35069,8.42791 -2.92057,2.183854 -4.43866,2.695897 -7.41201,2.500105 -3.14519,-0.207109 -5.00001,-0.945116 -7.31266,-2.91145 -2.06461,-1.75543 -4.60557,-5.212006 -5.68724,-7.735445 -2.40756,-5.616601 -4.76166,-14.957695 -5.05723,-20.069059 -0.23719,-4.101663 0.61579,-11.003268 1.742,-14.099915 1.14237,-3.141053 2.29787,-5.040712 4.16571,-6.849194 2.85628,-2.765508 4.77013,-3.49218 9.12461,-3.465422 2.9731,0.01827 3.02003,0.02637 5.27771,0.927592 3.43916,1.372851 4.92914,2.615742 5.50275,4.588868 0.32007,1.100998 0.3347,1.483394 0.10289,2.711979 -0.54401,2.883149 -2.72052,4.870887 -6.32535,5.776391 -1.39731,0.351027 -1.57205,0.351585 -2.66749,0.0062 -0.64478,-0.203247 -1.41575,-0.560757 -1.71261,-0.794267 -0.73976,-0.581886 -2.03795,-3.18441 -1.86314,-3.735173 0.16311,-0.513959 1.0191,-0.945162 1.87683,-0.945162 0.64944,0 2.97261,0.603867 4.76225,1.237651 1.05841,0.374825 1.06829,0.373675 1.63151,-0.152446 1.41729,-1.323932 1.57019,-3.460806 0.36949,-5.169193 -1.10105,-1.5666 -4.39994,-2.80448 -7.47384,-2.80448 -1.23151,0 -1.68447,0.127126 -3.25897,0.915189 -1.78024,0.891036 -1.86335,0.969276 -3.14392,2.944524 -1.63188,2.517104 -2.0532,3.861112 -1.92193,6.128824 0.17552,3.031929 1.63339,5.067412 4.84385,6.763412 2.08582,1.101873 2.83872,1.3117 6.12667,1.706872 2.56795,0.308636 3.04961,0.189085 6.69888,-1.657779 2.50127,-1.265877 4.4083,-3.180316 6.15251,-6.176884 1.69743,-2.916197 1.95697,-3.70454 1.96299,-5.957776 0.004,-1.69154 -0.0752,-2.062286 -0.76431,-3.554822 -1.42988,-3.096749 -3.97631,-5.611146 -7.51084,-7.415568 -2.87107,-1.465727 -3.43373,-1.564243 -7.99893,-1.398881 -6.92793,0.250945 -9.24918,0.764069 -13.80121,3.048393 -2.74642,1.378221 -4.70764,3.007612 -6.66138,5.535579 -2.72693,3.528406 -4.02712,5.753854 -5.59144,9.569442 -2.03271,4.958061 -2.59269,8.14505 -3.05472,17.371032 -0.12668,2.529884 -0.38685,5.479584 -0.57729,6.555156 -0.19045,1.075572 -0.44339,2.555375 -0.56259,3.288688 -0.11919,0.733313 -0.41681,2.008985 -0.66091,2.834969 -0.50672,1.714644 -2.49185,5.692864 -3.05016,6.111772 -1.47247,1.104788 -4.23022,2.808909 -5.00097,3.09025 -1.33317,0.48664 -5.41901,0.252092 -7.92746,-0.454752 -4.1501,-1.169435 -7.06468,-2.813207 -8.7009,-4.908228 -0.52306,-0.669709 -1.44501,-2.345665 -2.04915,-3.723803 -1.44582,-3.298096 -1.49818,-4.409673 -0.32184,-6.879167 1.0473,-2.198573 2.0744,-2.965813 3.94472,-2.94659 0.68069,0.007 1.7731,0.193231 2.42675,0.413928 0.9723,0.328278 1.2449,0.537311 1.49973,1.147217 0.84031,2.01112 -0.25249,3.960945 -1.97768,3.52795 -0.96936,-0.243294 -1.18816,-0.69701 -0.62443,-1.297079 0.41443,-0.441127 0.43801,-0.554023 0.16472,-0.780831 -0.41245,-0.342303 -1.1891,-0.134411 -2.02836,0.54312 -0.55422,0.447429 -0.667,0.699811 -0.667,1.495516 0,2.011278 1.44254,3.031015 3.72019,2.629813 1.59241,-0.280497 3.38495,-1.09285 4.25187,-1.92598 1.79988,-1.729745 2.04392,-5.274915 0.5185,-7.544243 -0.89518,-1.331751 -2.29698,-2.60845 -3.6016,-3.28042 -1.10708,-0.570216 -1.65983,-0.703366 -3.25796,-0.784965 -2.49936,-0.127617 -4.50303,0.236386 -6.80126,1.23455 -1.5465,0.671676 -2.09602,1.05959 -3.28432,2.319239 -2.17697,2.307709 -3.38518,5.004905 -4.0988,9.150346 -0.77359,4.493777 -1.94671,6.888798 -4.71664,9.627836 -1.42368,1.407808 -1.91168,1.727184 -4.06231,2.659786 -2.37179,1.028504 -2.5108,1.06028 -4.66697,1.066601 -2.53812,0.0074 -5.78578,-0.666832 -8.00247,-1.661397 -1.69352,-0.759831 -3.69422,-2.417833 -5.5732,-4.61884 -2.4795,-2.904445 -3.40438,-4.489232 -4.35577,-7.460009 -0.98461,-3.074487 -1.27935,-5.088714 -1.43486,-9.808187 -0.10188,-3.092062 -0.062,-3.564223 0.56057,-6.525183 0.97893,-4.655448 1.71678,-5.756151 5.00351,-7.469312 1.76337,-0.919124 3.57136,-1.084809 4.20422,-0.385506 0.79028,0.873251 1.09038,2.073944 1.00962,4.037996 -0.0598,1.454381 -0.0101,1.897559 0.21288,1.897559 0.52495,0 3.18029,-2.424837 3.64923,-3.332613 0.32837,-0.635686 0.45869,-1.307736 0.45869,-2.36213 0,-3.731089 -2.69027,-5.815074 -7.45103,-5.770707 -2.47197,0.02304 -3.4146,0.241177 -5.81547,1.345137 -2.2988,1.057023 -2.72328,1.357637 -5.11248,3.6158 -2.81564,2.661214 -4.04423,5.36365 -4.47285,9.84126 -0.22656,2.366894 0.2625,6.907744 1.14546,10.636043 0.92261,3.895753 1.14125,5.937662 0.76533,7.157186 -0.95946,3.112603 -2.57611,6.117457 -4.203723,7.815027 -1.380089,1.439382 -3.217859,2.36243 -6.087637,3.057695 -2.424922,0.587489 -4.37167,0.686795 -6.442931,0.328662 -0.700588,-0.120718 -1.821115,-0.314722 -2.48655,-0.429431 -1.729212,-0.298086 -4.16043,-1.377313 -5.619825,-2.495455 C 78.183879,66.082661 76.68539,64.731668 75.543771,63.610071 73.579444,61.680193 73.391835,61.412155 72.04912,58.610376 70.517608,55.414642 69.738518,52.976941 68.475402,47.428113 67.06966,41.252735 67.166975,35.918542 68.808395,29.234391 c 0.929461,-3.784923 1.53695,-5.31493 3.29597,-8.304402 0.942299,-1.601445 1.618148,-2.419614 3.067894,-3.712952 1.217499,-1.086147 2.186531,-1.757605 2.806871,-1.945618 1.060155,-0.321307 5.441614,-0.331843 6.48804,-0.0155 2.191265,0.662178 2.149684,3.903053 -0.08464,6.653341 -1.350728,1.662693 -2.988473,2.560061 -4.931539,2.70061 -1.533684,0.110936 -2.006769,0.496394 -1.413572,1.151868 0.216974,0.239756 0.756118,0.491306 1.197659,0.559139 0.441542,0.06783 1.314524,0.213435 1.940178,0.324011 2.429875,0.429452 4.926301,-0.764738 7.505771,-3.590995 1.575673,-1.726422 3.022785,-4.410232 3.022785,-5.605859 0,-1.013884 -0.702977,-3.219409 -1.412559,-4.430221 C 89.483936,11.636009 87.835961,10.243046 85.792046,9.2159749 84.09664,8.3644971 83.958125,8.3338125 81.374442,8.2465251 73.257207,7.9723426 66.540513,11.744883 62.743565,18.710486 c -3.590293,6.58648 -4.88442,12.287189 -5.257436,23.161894 -0.320803,9.352522 -1.188365,13.252724 -4.546848,20.44423 -1.753373,3.754492 -4.038109,6.304076 -7.034918,7.84965 -1.333606,0.687797 -1.44274,0.705122 -4.281772,0.703316 -10.891668,-0.0071 -17.055621,-2.309102 -19.238069,-7.184574 -0.859532,-1.920147 -2.131779,-6.109628 -2.575246,-8.479586 -0.43521,-2.325832 -0.338215,-5.774366 0.212365,-7.555611 0.351302,-1.136542 2.027443,-4.027674 2.879857,-4.967139 1.187592,-1.308872 4.270913,-3.388236 5.687234,-3.834908 2.868377,-0.904612 6.839384,-0.768136 8.62031,0.296106 0.804679,0.480858 2.050649,1.954067 2.457153,2.905766 0.49506,1.159028 0.331962,2.62926 -0.424731,3.834908 -1.02216,1.628619 -1.52565,2.09858 -2.248336,2.09858 -1.263195,0 -2.413596,-0.918388 -3.258464,-2.601909 -0.368582,-0.734453 -0.46984,-1.344905 -0.46984,-2.840136 0,-2.367132 -0.335599,-2.666225 -1.480475,-1.317749 -1.079495,1.271468 -1.629992,2.907653 -1.629992,4.844148 0,1.366527 0.108041,1.837897 0.682204,2.986898 1.170789,2.342956 3.157649,3.595646 5.704467,3.595646 2.688342,0 5.411329,-2.186867 7.088137,-5.692159 0.920863,-1.925022 0.968568,-2.124638 0.968568,-4.015259 0,-4.159873 -1.528841,-7.06353 -4.883896,-9.273852 -2.257888,-1.487502 -4.38044,-1.987217 -8.348136,-1.965255 -2.717775,0.01505 -3.337377,0.08937 -4.787597,0.576192 -0.916258,0.307578 -2.339596,0.94936 -3.161659,1.42627 -2.776333,1.610658 -5.693415,4.818804 -9.976609,10.970907 -1.42954,2.053299 -3.378675,6.312375 -5.4799374,11.972912 -0.2555309,0.688369 -0.512958,1.356072 -0.7835723,2.029334 -1.2062515,2.672324 -2.4150108,4.772865 -3.4079821,5.870959 -1.3676702,1.51249 -3.26098737,2.907259 -4.8002674,3.537769 -1.49076,0.61066 -5.0254023,0.507186 -7.8119018,-0.229444 -2.710329,-0.7165 -6.109138,-2.526288 -7.103848,-3.782198 -1.29968,-1.64097 -1.554417,-2.858679 -1.662937,-7.926131 -0.0537,-2.50617 0.0055,-5.605856 0.131778,-6.888468 0.2121,-2.144229 0.322443,-2.513807 1.368463,-4.588868 1.43251,-2.841775 2.203098,-3.468226 4.417098,-3.591512 1.04563,-0.05822 1.986689,0.06079 3.2498484,0.410828 0.9777494,0.270952 2.1272029,0.504931 2.5549729,0.520382 0.71884,0.02595 0.7835171,-0.02532 0.8469271,-0.680062 0.10247,-1.058013 -0.9698273,-3.116111 -2.2929373,-4.402315 -1.3212895,-1.284419 -3.9325891,-2.799594 -5.8083691,-3.369821 -0.95284,-0.289653 -2.04374,-0.39423 -4.07853,-0.392224 -2.60741,0.0029 -2.888071,0.04696 -4.586381,0.722437 -3.93282,1.564239 -7.7371,5.584113 -9.60611,10.150285 -0.63364,1.548015 -1.137821,4.236268 -1.154071,6.15673 -0.0187,2.202972 -0.26746,4.270571 -0.86416,7.176306 -0.84365,4.108324 -1.991231,5.915489 -5.351201,8.427909 -2.92057,2.18385 -4.438656,2.695906 -7.412006,2.500106 -3.14519,-0.2071 -4.999002,-0.945627 -7.311652,-2.911967 -2.06461,-1.75542 -4.606072,-5.211498 -5.687742,-7.734928 -2.40756,-5.616603 -4.761665,-14.95821 -5.057235,-20.069576 -0.23719,-4.101662 0.615794,-11.002745 1.742004,-14.099398 1.14237,-3.14105 2.297359,-5.04072 4.165199,-6.849194 2.85628,-2.765513 4.770134,-3.492727 9.124614,-3.465939 2.9731,0.01827 3.020536,0.02689 5.278216,0.928109 3.43916,1.372849 4.929642,2.615741 5.503252,4.588867 0.32007,1.100994 0.334192,1.483394 0.102382,2.711979 -0.54401,2.883151 -2.721022,4.870892 -6.325852,5.776392 -1.39731,0.350926 -1.572051,0.351581 -2.667491,0.0062 -0.64478,-0.203249 -1.41524,-0.560758 -1.7121,-0.794267 -0.73976,-0.581885 -2.037442,-3.184409 -1.862632,-3.735172 0.16311,-0.513962 1.01808,-0.944645 1.87581,-0.944645 0.64944,0 2.973121,0.603347 4.762761,1.237133 1.05842,0.374824 1.0688,0.373677 1.63202,-0.152445 1.41729,-1.323929 1.569678,-3.46081 0.368978,-5.169194 -1.10105,-1.566597 -4.39995,-2.80448 -7.47384,-2.80448 -1.23152,0 -1.684472,0.127126 -3.258972,0.91519 -1.78024,0.891033 -1.863349,0.968753 -3.143919,2.944006 -1.63188,2.517096 -2.053708,3.86111 -1.922438,6.128825 0.17552,3.031931 1.633395,5.067926 4.843855,6.763929 2.08582,1.101867 2.838714,1.311184 6.126664,1.706355 2.56795,0.308636 3.049614,0.189606 6.698884,-1.657263 2.50127,-1.265877 4.409317,-3.180319 6.153527,-6.176884 1.69743,-2.916199 1.956458,-3.704032 1.962478,-5.957259 0.004,-1.691548 -0.07522,-2.063312 -0.764312,-3.555855 -1.42988,-3.096745 -3.976817,-5.610631 -7.511347,-7.4150515 -2.87107,-1.4656746 -3.433725,-1.564246 -7.998925,-1.398881 -6.92793,0.250946 -9.248675,0.7635613 -13.800705,3.0478755 -2.74642,1.378218 -4.708146,3.007607 -6.661886,5.53558 -2.72693,3.528405 -4.026108,5.753861 -5.590428,9.569442 -2.03271,4.958061 -2.5937,8.145051 -3.05573,17.371032 -0.12668,2.529888 -0.386342,5.480092 -0.576782,6.555673 -0.19045,1.07557 -0.44339,2.55589 -0.56259,3.289204 -0.11919,0.733314 -0.416818,2.008991 -0.660918,2.83497 -0.50672,1.714644 -2.492351,5.692354 -3.050661,6.111254 -1.47247,1.1048 -4.229718,2.808394 -5.000468,3.089734 -1.33317,0.48664 -5.419518,0.252594 -7.927968,-0.454236 -4.150075,-1.16944 -7.064673,-2.813724 -8.700893,-4.908744 -0.52306,-0.66971 -1.44501,-2.344623 -2.04915,-3.72277 -1.44582,-3.298087 -1.49768,-4.410194 -0.32134,-6.879683 1.0473,-2.198578 2.07441,-2.965854 3.94473,-2.946591 0.68069,0.007 1.77308,0.193233 2.42674,0.413929 0.972279,0.328281 1.244398,0.536802 1.499228,1.1467 0.840304,2.01112 -0.252505,3.960946 -1.977688,3.52795 -0.96936,-0.243291 -1.18816,-0.697014 -0.62442,-1.297079 0.41442,-0.441132 0.43852,-0.554025 0.16523,-0.780831 -0.41245,-0.342307 -1.18962,-0.133894 -2.02888,0.543636 -0.55422,0.447433 -0.66598,0.6993 -0.66598,1.495 0,2.01128 1.44153,3.031014 3.71918,2.629813 1.592378,-0.280493 3.384957,-1.092331 4.251867,-1.925464 1.79988,-1.729744 2.043916,-5.274911 0.518496,-7.544242 -0.89518,-1.331744 -2.296981,-2.60793 -3.601595,-3.279903 -1.107074,-0.570217 -1.659828,-0.703914 -3.257958,-0.785482 -2.49936,-0.12761 -4.50253,0.236384 -6.80076,1.23455 -1.5465,0.671681 -2.09601,1.059075 -3.28431,2.318722 -2.17697,2.307717 -3.38569,5.005416 -4.09931,9.150862 -0.77359,4.493773 -1.9462,6.88828 -4.71613,9.62732 -1.42368,1.4078 -1.91219,1.727702 -4.06282,2.660302 -2.37179,1.02848 -2.51029,1.060582 -4.66646,1.066602 -2.53812,0.007 -5.78579,-0.666837 -8.00248,-1.661397 -1.69352,-0.75984 -3.6942,-2.41783 -5.57319,-4.61884 -2.4795,-2.904445 -3.40489,-4.48923 -4.35628,-7.46001 -0.98461,-3.07449 -1.27935,-5.088711 -1.43486,-9.808187 -0.10188,-3.092059 -0.061,-3.564226 0.56158,-6.525183 0.97893,-4.655446 1.71627,-5.756152 5.003,-7.469311 1.76337,-0.919126 3.57086,-1.085325 4.20372,-0.386023 0.79028,0.873254 1.09038,2.074467 1.00962,4.038513 -0.0598,1.454377 -0.0101,1.897559 0.21287,1.897559 0.52496,0 3.18031,-2.424835 3.64924,-3.332614 0.32837,-0.635682 0.45869,-1.307738 0.45869,-2.362129 0,-3.731082 -2.69027,-5.815053 -7.45103,-5.770707 -2.47197,0.02304 -3.41409,0.240665 -5.81496,1.34462 -2.2988,1.057029 -2.72379,1.357637 -5.11299,3.6158 -2.81564,2.661211 -4.04423,5.36365 -4.47285,9.84126 -0.22656,2.366892 0.263,6.908257 1.14596,10.63656 0.92261,3.895745 1.14125,5.937145 0.76533,7.156669 -0.95946,3.112597 -2.5756,6.117447 -4.20321,7.815027 -1.38008,1.43938 -3.21888,2.362951 -6.08865,3.058211 -2.42493,0.58749 -4.37116,0.686792 -6.44243,0.328662 -0.70276,-0.12151 -1.82264,-0.314721 -2.48807,-0.429431 -1.72921,-0.29809 -4.15942,-1.377831 -5.61881,-2.495971 -0.69083,-0.5293 -2.19033,-1.879768 -3.33195,-3.001368 -1.96432,-1.92988 -2.15143,-2.198433 -3.49415,-5.000211 -1.53151,-3.19573 -2.3111,-5.633437 -3.57422,-11.182263 -1.40573,-6.175379 -1.30791,-11.509568 0.3335,-18.193722 0.92946,-3.784919 1.53695,-5.314932 3.29597,-8.304403 0.94229,-1.601442 1.61815,-2.419096 3.06789,-3.712434 1.21751,-1.086136 2.18653,-1.758127 2.80687,-1.946135 1.06015,-0.321278 5.4411,-0.33178 6.48753,-0.0155 2.19122,0.662181 2.15028,3.903574 -0.0836,6.653858 -1.35072,1.662693 -2.98899,2.560067 -4.93205,2.70061 -1.53368,0.110935 -2.00627,0.495884 -1.41307,1.151351 0.21698,0.23976 0.75562,0.491833 1.19716,0.559656 0.44154,0.06783 1.31452,0.213427 1.94017,0.324011 2.42988,0.429443 4.92681,-0.764742 7.50628,-3.590995 1.57568,-1.726424 3.02228,-4.410752 3.02228,-5.606377 0,-1.013889 -0.70298,-3.218888 -1.41256,-4.4297033 -0.80994,-1.3820396 -2.45935,-2.7747641 -4.50326,-3.8018351 -1.69383,-0.851165 -1.83513,-0.8822899 -4.41405,-0.9694499 h -0.002 v 0.00103 5.168e-4 c -8.11557,-0.272908 -14.83145,3.4983702 -18.62784,10.462927 -3.59028,6.586481 -4.88391,12.287702 -5.25693,23.162411 -0.3208,9.352517 -1.18886,13.252194 -4.54735,20.443713 -1.75337,3.75448 -4.03759,6.30407 -7.03441,7.84965 -1.3336,0.687791 -1.44274,0.705326 -4.28177,0.703316 -10.89167,-0.007 -17.05512,-2.308587 -19.23757,-7.184057 -0.85953,-1.92015 -2.1328,-6.109625 -2.57626,-8.479586 -0.43521,-2.325826 -0.3377,-5.774366 0.21288,-7.555611 0.35131,-1.136541 2.02745,-4.028194 2.87985,-4.967656 1.1876,-1.308879 4.27142,-3.388238 5.68774,-3.834908 2.86838,-0.904609 6.83939,-0.768127 8.62031,0.296106 0.80468,0.480863 2.05065,1.95459 2.45716,2.906283 0.49506,1.159036 0.33145,2.628742 -0.42524,3.834391 -1.02215,1.628621 -1.52565,2.099097 -2.24834,2.099097 -1.26319,0 -2.41411,-0.918903 -3.25897,-2.602425 -0.36858,-0.734447 -0.46882,-1.344905 -0.46882,-2.840137 0,-2.367133 -0.33611,-2.665701 -1.48099,-1.317232 -1.07949,1.271475 -1.6305,2.907137 -1.6305,4.843632 0,1.366529 0.10856,1.838412 0.68272,2.987414 1.1708,2.342953 3.15715,3.59513 5.70396,3.59513 2.68834,0 5.41184,-2.18687 7.08864,-5.692159 0.92086,-1.925027 0.96857,-2.124119 0.96857,-4.014742 0,-4.159864 -1.52834,-7.064044 -4.88339,-9.27437 -2.25789,-1.487507 -4.38095,-1.987227 -8.34865,-1.965254 -2.71777,0.01504 -3.33838,0.08988 -4.78861,0.576709 -0.91625,0.307582 -2.33807,0.949359 -3.16013,1.426269 -2.77633,1.610662 -5.69443,4.819321 -9.97763,10.971423 -1.42457,2.046162 -3.36524,6.281834 -5.45814,11.912968 -0.01,0.05089 -0.0195,0.101808 -0.0304,0.152446 -0.0463,0.221406 -0.0962,0.443092 -0.16979,0.657324 -0.0598,0.168989 -0.12457,0.335939 -0.1926,0.501778 -0.0583,0.143712 -0.11547,0.288002 -0.16624,0.434599 -0.0561,0.160264 -0.11022,0.320989 -0.16219,0.482658 -0.055,0.174247 -0.10228,0.350308 -0.16067,0.523482 -0.0551,0.160833 -0.11334,0.321024 -0.17334,0.480074 -0.0626,0.156547 -0.11966,0.315204 -0.18347,0.471289 -0.0329,0.07815 -0.0677,0.155484 -0.10188,0.233061 -0.0106,0.04044 -0.0225,0.08046 -0.035,0.120406 -0.0143,0.04324 -0.0246,0.08762 -0.0375,0.131258 -0.0145,0.05309 -0.0289,0.106175 -0.0456,0.158647 -0.0156,0.04967 -0.0315,0.09935 -0.0492,0.148311 -0.004,0.0118 -0.009,0.02344 -0.0132,0.03514 -0.005,0.0383 -0.0138,0.0791 -0.0269,0.121957 -0.003,0.0113 -0.006,0.02271 -0.0101,0.03411 -0.005,0.065 -0.0238,0.137971 -0.0583,0.217041 -0.008,0.0181 -0.0165,0.03616 -0.0243,0.05426 -0.0279,0.0903 -0.0563,0.180178 -0.0897,0.268718 -0.0291,0.0794 -0.059,0.158701 -0.0892,0.237711 -0.0326,0.0771 -0.0695,0.152706 -0.11303,0.224276 -0.0159,0.0253 -0.0316,0.05055 -0.0481,0.07545 -0.006,0.0132 -0.0105,0.02607 -0.0162,0.03927 -0.0773,0.16519 -0.16384,0.32609 -0.26356,0.47904 -0.075,0.11913 -0.14999,0.238166 -0.23517,0.350366 -0.008,0.0108 -0.0167,0.02176 -0.0248,0.03256 -0.009,0.0166 -0.0166,0.03396 -0.0248,0.05116 -0.0178,0.0372 -0.036,0.0746 -0.0553,0.111105 -0.0255,0.0487 -0.054,0.0955 -0.0857,0.14056 -0.0283,0.0383 -0.0571,0.0758 -0.0897,0.110587 -0.0157,0.016 -0.0291,0.03371 -0.0441,0.05271 -0.0174,0.0218 -0.0335,0.04466 -0.0507,0.06666 -0.0236,0.0339 -0.0456,0.0688 -0.0704,0.101802 -0.0244,0.0311 -0.0493,0.0626 -0.075,0.0925 -0.0266,0.0305 -0.053,0.05973 -0.0826,0.08733 l -0.004,0.0041 -5.1e-4,5.17e-4 v 5.17e-4 5.17e-4 5.16e-4 l -5e-4,5.17e-4 v 5.17e-4 c -0.0402,0.0409 -0.0818,0.08079 -0.12114,0.122473 -0.0149,0.016 -0.0295,0.03121 -0.0451,0.04651 l -5e-4,5.17e-4 -5.1e-4,5.16e-4 v 5.17e-4 l -5.1e-4,5.17e-4 -5e-4,5.17e-4 -5.1e-4,5.16e-4 -5.1e-4,5.17e-4 -5e-4,5.17e-4 c -0.0221,0.0216 -0.0469,0.04296 -0.07,0.06356 l -0.006,0.0057 c -0.0236,0.022 -0.0471,0.0436 -0.0715,0.0646 -0.0328,0.0288 -0.0671,0.0563 -0.10136,0.0832 -0.0256,0.018 -0.0501,0.03776 -0.0745,0.05736 -0.0243,0.0192 -0.0459,0.04251 -0.0699,0.06201 -0.0291,0.0286 -0.059,0.05653 -0.0892,0.08423 -0.0358,0.0327 -0.0718,0.06533 -0.1115,0.09353 -0.0329,0.0233 -0.0668,0.04591 -0.10035,0.06821 -0.0214,0.013 -0.0393,0.03122 -0.0613,0.04393 v -5.16e-4 c -0.0345,0.0311 -0.0708,0.06183 -0.10745,0.09043 -0.0427,0.034 -0.0847,0.06877 -0.13127,0.09767 -0.0433,0.0276 -0.0872,0.05451 -0.13127,0.08061 -0.0327,0.02 -0.0646,0.03951 -0.0958,0.06201 -0.0329,0.0225 -0.0625,0.04943 -0.0958,0.07183 -0.0354,0.0248 -0.0702,0.0495 -0.10796,0.0708 -0.0422,0.0291 -0.0854,0.05735 -0.12873,0.08475 -0.0384,0.0237 -0.0777,0.04701 -0.11759,0.06821 -0.0437,0.0263 -0.0881,0.05081 -0.1333,0.07441 -0.0404,0.0237 -0.0806,0.04736 -0.12012,0.07286 -0.0466,0.0316 -0.0923,0.0656 -0.13989,0.0956 -0.0517,0.031 -0.10427,0.0602 -0.15864,0.0863 -0.045,0.0219 -0.0899,0.04341 -0.13634,0.06201 -0.046,0.0217 -0.0929,0.04118 -0.13988,0.06098 -0.0422,0.0167 -0.0825,0.03739 -0.12418,0.05529 -0.0363,0.0166 -0.0716,0.03583 -0.10745,0.05323 -0.052,0.0315 -0.10467,0.06227 -0.15965,0.08837 -0.0542,0.0251 -0.10984,0.04746 -0.16523,0.06976 -0.0493,0.0186 -0.0992,0.03493 -0.14851,0.05323 -0.0414,0.0146 -0.0821,0.03224 -0.12316,0.04754 -0.0407,0.0172 -0.0808,0.03431 -0.12113,0.05271 -0.051,0.0248 -0.10301,0.04775 -0.15408,0.07235 -0.0617,0.0273 -0.12503,0.05212 -0.18753,0.07751 -0.0683,0.0268 -0.13615,0.05298 -0.20578,0.07648 -0.0642,0.0219 -0.12919,0.04221 -0.1931,0.06511 -0.0609,0.0205 -0.12125,0.042 -0.18145,0.0646 -0.0656,0.024 -0.13104,0.04983 -0.19615,0.07493 -0.0717,0.0276 -0.14347,0.05481 -0.21591,0.08062 -0.0795,0.0271 -0.15959,0.05261 -0.24075,0.07441 -0.0743,0.02 -0.14877,0.03959 -0.22352,0.05839 -0.0675,0.0163 -0.13378,0.03514 -0.2007,0.05374 -0.063,0.0162 -0.12594,0.03349 -0.18905,0.04909 -0.0686,0.0175 -0.13808,0.03543 -0.2073,0.05013 -0.0686,0.0138 -0.13736,0.02592 -0.20628,0.03772 -0.0719,0.0116 -0.14348,0.02281 -0.21592,0.03101 -0.0695,0.007 -0.13898,0.01535 -0.20881,0.02015 -0.062,0.003 -0.1238,0.0077 -0.18601,0.0067 h -0.15459 -0.13685 -0.11201 -0.10187 -0.0801 c -0.0222,0 -0.0433,10e-6 -0.0654,0 -0.022,0 -0.0435,4e-5 -0.0654,0 -0.0257,-4e-5 -0.0513,-3.07e-4 -0.077,-5.17e-4 -0.0334,-3e-4 -0.0649,-3.14e-4 -0.0983,-0.0021 -0.0405,-0.002 -0.0814,-0.0038 -0.12164,-0.0078 -0.0273,-0.003 -0.0504,-0.0051 -0.0801,-0.0031 -0.0393,-5e-5 -0.0788,-2.47e-4 -0.11809,-5.17e-4 -0.0129,-1.3e-4 -0.0271,-3.37e-4 -0.04,-5.17e-4 l -2.62948,0.08785 c -3.01588,0.10091 -3.19274,0.0822 -4.38922,-0.465604 -1.72903,-0.79158 -3.49863,-2.524535 -4.22095,-4.134115 -1.14974,-2.561944 -1.54615,-7.931223 -0.9042,-12.224577 0.46735,-3.125602 1.63411,-5.337601 3.47286,-6.58151 0.84563,-0.572069 1.15028,-0.648614 2.51747,-0.634587 1.24333,0.01275 1.84544,0.150696 2.99997,0.68833 0.79442,0.369942 1.72973,0.941544 2.07855,1.270724 1.27868,1.206699 1.6057,0.04161 0.69132,-2.465483 -0.47072,-1.290624 -0.87012,-1.92089 -1.85654,-2.932121 -1.7076,-1.750549 -3.43204,-2.371295 -6.46828,-2.328023 -2.83138,0.04035 -3.60429,0.256515 -6.35879,1.780253 -4.39828,2.433053 -7.06192,5.492715 -9.25893,10.634493 -0.84393,1.975111 -1.31658,3.912348 -1.84084,7.554061 -0.84608,5.876995 -2.57314,9.06135 -5.6259,10.36991 -0.87931,0.37692 -1.19562,0.406076 -2.30105,0.211356 -2.8915,-0.50933 -6.21676,-2.88046 -8.21383,-5.85649 -2.11968,-3.15871 -3.74679,-6.954613 -5.07142,-11.835453 -0.48362,-1.781981 -2.75538,-7.277601 -4.04153,-9.777181 -0.37733,-0.733313 -1.29937,-2.233677 -2.04915,-3.333647 -3.18723,-4.675891 -4.57118,-7.653461 -4.57118,-9.836608 0,-2.590927 0.85369,-3.874605 2.853,-4.289661 1.06971,-0.222071 1.45721,-0.195117 2.95081,0.204639 3.52568,0.943643 4.52458,1.796208 4.38213,3.740857 -0.0934,1.274581 0.30622,1.627306 1.4156,1.251086 0.40264,-0.136542 1.30913,-0.42249 2.01468,-0.63562 2.42312,-0.731952 3.08205,-2.196183 2.24935,-5.000212 -0.29432,-0.991061 -0.65573,-1.497468 -2.05624,-2.888196 -1.45268,-1.442544 -1.95551,-1.787737 -3.4759,-2.383317 -3.98064,-1.559318 -4.79056,-1.717724 -8.77743,-1.717724 -3.54001,0 -3.74402,0.02531 -5.91227,0.729671 -3.6151,1.174357 -5.07963,2.323733 -6.43026,5.047754 -1.12018,2.259252 -1.39878,4.512951 -0.89711,7.257955 0.37688,2.062209 0.54163,2.675448 1.63,6.06888 0.64235,2.00276 3.03111,6.898127 4.66595,9.56169 0.60012,0.977751 1.49004,2.427604 1.97718,3.222026 1.80378,2.941565 3.63352,7.787137 3.63352,9.623185 0,3.302471 -2.75923,8.001671 -5.75008,9.793201 -0.6876,0.41189 -2.09999,1.120521 -3.13885,1.574581 -1.03886,0.45405 -2.58895,1.155468 -3.44448,1.559078 -1.86272,0.87878 -3.16288,1.098379 -6.56659,1.108459 -2.49373,0.007 -2.59612,-0.01151 -3.61224,-0.672827 -1.47446,-0.95966 -3.39953,-2.86914 -4.10793,-4.07417 -0.55197,-0.93887 -0.60207,-1.215394 -0.59705,-3.356384 0.008,-3.580978 1.05225,-6.030247 3.07752,-7.217131 0.82371,-0.482726 1.22485,-0.560172 2.88188,-0.560172 1.1351,0 1.92497,0.09065 1.92497,0.221692 0,0.475338 -0.87936,1.060102 -2.1794,1.449524 -0.74742,0.223886 -1.41232,0.545201 -1.47693,0.713651 -0.1669,0.434951 0.39342,1.642449 1.01672,2.192114 0.89372,0.788141 2.29998,1.199927 4.09526,1.199927 2.67031,0 3.91135,-0.800182 4.44801,-2.869075 0.36371,-1.402166 0.0736,-3.713621 -0.62037,-4.948536 -0.46138,-0.820937 -1.76856,-1.845457 -3.5058,-2.747636 -1.11743,-0.580308 -5.3483,-0.715247 -7.39326,-0.235644 -2.1334,0.500343 -3.15503,1.088724 -5.01719,2.889229 -2.05571,1.987646 -3.42945,4.27973 -4.82003,8.04137 -1.70472,4.6114 -3.64448,8.423545 -5.11198,10.046415 -1.36767,1.51248 -3.26098,2.908282 -4.80026,3.538802 -1.49076,0.61066 -5.02541,0.506153 -7.81191,-0.230477 -2.71033,-0.7165 -6.10913,-2.525751 -7.10384,-3.781681 -1.29968,-1.64097 -1.55544,-2.858174 -1.66396,-7.925614 -0.0537,-2.50617 0.006,-5.606372 0.1328,-6.888986 0.2121,-2.144232 0.32244,-2.513294 1.36846,-4.58835 1.43251,-2.841778 2.2031,-3.468226 4.4171,-3.591512 1.04563,-0.05822 1.98669,0.06027 3.24985,0.410311 0.97775,0.270947 2.12721,0.505457 2.55497,0.520898 0.71885,0.02596 0.78301,-0.02585 0.84642,-0.680578 0.10247,-1.058016 -0.96931,-3.116628 -2.29243,-4.402832 -1.32128,-1.284422 -3.93259,-2.799082 -5.80837,-3.369304 -0.95284,-0.289659 -2.04374,-0.394532 -4.07853,-0.392224 -2.60741,0.0029 -2.88807,0.04747 -4.58638,0.722953 -3.93282,1.564237 -7.73761,5.584109 -9.60662,10.150285 -0.63364,1.548011 -1.13731,4.236266 -1.15356,6.15673 -0.0187,2.202971 -0.26746,4.27005 -0.86416,7.17579 -0.84365,4.10833 -1.99123,5.915491 -5.3512,8.427909 -2.92057,2.183852 -4.43866,2.695896 -7.41201,2.500106 -3.14519,-0.20711 -4.999,-0.94512 -7.31165,-2.91145 -2.06461,-1.75543 -4.60658,-5.212005 -5.68825,-7.735445 -2.40756,-5.6166 -4.76116,-14.957696 -5.05673,-20.06906 -0.23719,-4.101664 0.61529,-11.003268 1.7415,-14.099914 1.14237,-3.141053 2.29786,-5.040713 4.1657,-6.849195 2.85628,-2.765508 4.77014,-3.492179 9.12462,-3.465421 2.9731,0.01827 3.02053,0.02637 5.27821,0.927592 3.43916,1.372851 4.92914,2.615741 5.50275,4.588867 0.32007,1.100998 0.33419,1.483394 0.10238,2.711979 -0.54401,2.883149 -2.72051,4.870888 -6.32534,5.776392 -1.39731,0.351027 -1.57205,0.351575 -2.66749,0.0062 -0.64478,-0.203247 -1.41575,-0.560757 -1.71261,-0.794267 -0.73976,-0.581886 -2.03744,-3.184409 -1.86263,-3.735172 0.16311,-0.513959 1.01858,-0.945162 1.87631,-0.945162 0.64944,0 2.97262,0.603866 4.76226,1.23765 1.05841,0.374825 1.0693,0.373676 1.63252,-0.152445 1.41729,-1.323932 1.56918,-3.460807 0.36848,-5.169194 -1.10105,-1.566601 -4.39944,-2.80448 -7.47334,-2.80448 -1.23151,0 -1.68498,0.127128 -3.25948,0.91519 -1.78024,0.891036 -1.86284,0.969275 -3.14341,2.944523 -1.63188,2.517104 -2.05371,3.861113 -1.92244,6.128825 0.17552,3.031929 1.6334,5.067411 4.84386,6.763411 2.08582,1.101872 2.83871,1.3117 6.12666,1.706873 2.56795,0.308636 3.04962,0.189085 6.69889,-1.65778 2.50127,-1.265877 4.4083,-3.180316 6.15251,-6.176884 1.69743,-2.916197 1.95697,-3.70454 1.96299,-5.957776 0.004,-1.69154 -0.0747,-2.062286 -0.76381,-3.554822 -1.42988,-3.096749 -3.97682,-5.611146 -7.51135,-7.415568 -2.87107,-1.465727 -3.43372,-1.564243 -7.99892,-1.398881 -6.92793,0.250945 -9.24918,0.764068 -13.80121,3.048393 -2.74642,1.378221 -4.70764,3.007611 -6.66138,5.535579 -2.72693,3.528406 -4.02713,5.753854 -5.59145,9.569442 -2.03271,4.958061 -2.59268,8.145051 -3.05471,17.371033 -0.12668,2.529884 -0.38685,5.479583 -0.57729,6.555155 -0.19045,1.075572 -0.44288,2.555374 -0.56208,3.288688 -0.11919,0.733313 -0.41733,2.008989 -0.66143,2.83497 -0.50672,1.71464 -2.49184,5.692862 -3.05015,6.111771 -1.47247,1.104789 -4.22972,2.808911 -5.00047,3.090251 -1.33317,0.48664 -5.41952,0.252087 -7.92797,-0.454753 -4.1501,-1.169431 -7.06468,-2.813208 -8.7009,-4.908227 -0.52306,-0.66971 -1.445,-2.345663 -2.04914,-3.723804 -1.44582,-3.298096 -1.49768,-4.409672 -0.32134,-6.879167 1.0473,-2.198574 2.0739,-2.965813 3.94422,-2.94659 0.68069,0.007 1.7736,0.193231 2.42725,0.413928 0.9723,0.328278 1.2444,0.537312 1.49923,1.147217 0.84031,2.01112 -0.2525,3.960945 -1.97769,3.52795 -0.96936,-0.243294 -1.18815,-0.697009 -0.62442,-1.297078 0.41443,-0.441127 0.43852,-0.554023 0.16523,-0.780831 -0.41245,-0.342303 -1.18962,-0.134412 -2.02888,0.543119 -0.55422,0.447429 -0.66598,0.699811 -0.66598,1.495516 0,2.011278 1.44153,3.031016 3.71918,2.629814 1.59241,-0.280496 3.38495,-1.092851 4.25187,-1.925981 1.79988,-1.729745 2.04391,-5.274915 0.51849,-7.544242 -0.89518,-1.331751 -2.29697,-2.60845 -3.60159,-3.28042 -1.10708,-0.570217 -1.65983,-0.703367 -3.25796,-0.784965 -2.49936,-0.127617 -4.50304,0.236386 -6.80127,1.23455 -1.5465,0.671675 -2.09601,1.05959 -3.28431,2.319238 -2.17697,2.30771 -3.38518,5.004905 -4.0988,9.150346 -0.77359,4.493776 -1.94671,6.888796 -4.71664,9.627836 -1.42368,1.40781 -1.91168,1.727176 -4.06231,2.659786 -2.37179,1.0285 -2.5108,1.060282 -4.66697,1.066602 -2.53812,0.007 -5.78528,-0.666837 -8.00197,-1.661398 -1.69352,-0.759829 -3.69472,-2.417829 -5.5737,-4.618839 -2.4795,-2.90445 -3.40438,-4.489231 -4.35577,-7.46001 -0.98461,-3.074487 -1.27935,-5.088714 -1.43486,-9.808187 -0.10188,-3.092061 -0.061,-3.564223 0.56158,-6.525183 0.97893,-4.655448 1.71627,-5.75615 5.003,-7.469311 1.76337,-0.919124 3.57086,-1.08481 4.20372,-0.385507 0.79028,0.873252 1.09038,2.073946 1.00962,4.037997 -0.0598,1.454381 -0.0101,1.897558 0.21287,1.897558 0.52495,0 3.1803,-2.424836 3.64924,-3.332613 0.32837,-0.635686 0.45869,-1.307735 0.45869,-2.362129 0,-3.731089 -2.69027,-5.815075 -7.45103,-5.770708 -2.47197,0.02304 -3.41409,0.241179 -5.81496,1.345138 -2.2988,1.057023 -2.72379,1.357637 -5.11299,3.6158 -2.81564,2.661214 -4.04423,5.36365 -4.47285,9.84126 -0.22656,2.366894 0.2625,6.907744 1.14546,10.636043 0.92261,3.895753 1.14124,5.937666 0.76532,7.157186 -0.95946,3.11261 -2.57612,6.117457 -4.20372,7.815027 -1.38009,1.43938 -3.21785,2.362425 -6.08763,3.057694 -2.42492,0.58748 -4.37116,0.686792 -6.44243,0.328662 -0.70058,-0.12072 -1.82111,-0.314721 -2.48655,-0.429431 -1.72921,-0.29809 -4.15941,-1.377314 -5.61881,-2.495455 -0.69083,-0.52929 -2.19034,-1.880294 -3.33196,-3.001884 -1.96433,-1.92988 -2.15142,-2.197915 -3.49414,-4.999695 -1.53151,-3.195731 -2.31111,-5.633435 -3.57423,-11.182263 -1.40574,-6.175378 -1.30792,-11.50957 0.3335,-18.193721 0.92946,-3.784923 1.53696,-5.314931 3.29598,-8.304403 0.9423,-1.601445 1.61764,-2.419614 3.06738,-3.712952 1.2175,-1.086147 2.18653,-1.757604 2.80687,-1.945617 1.06015,-0.321307 5.44162,-0.331846 6.48804,-0.0155 2.19127,0.662178 2.1503,3.903052 -0.0841,6.65334 -1.35073,1.662693 -2.98948,2.560062 -4.93255,2.700611 -1.53368,0.110936 -2.00576,0.496393 -1.41256,1.151867 0.21698,0.239756 0.7551,0.491306 1.19664,0.559139 0.44155,0.06783 1.31453,0.213436 1.94018,0.324012 2.42988,0.429452 4.92681,-0.764739 7.50628,-3.590996 1.57567,-1.726422 3.02278,-4.410232 3.02278,-5.605859 0,-1.013884 -0.70298,-3.219409 -1.41256,-4.430221 -0.80566,-1.382817 -2.45477,-2.774764 -4.49869,-3.8018347 -1.69493,-0.8517066 -1.83393,-0.8821618 -4.41761,-0.9694498 -8.11723,-0.274182 -14.83342,3.4983575 -18.63037,10.4639605 -3.5903,6.58648 -4.88441,12.287189 -5.25743,23.161894 -0.3208,9.352522 -1.18836,13.252721 -4.54685,20.44423 -1.75337,3.754491 -4.03862,6.30407 -7.03543,7.84965 -1.3336,0.687791 -1.44274,0.705127 -4.28177,0.703316 -10.89167,-0.007 -17.05511,-2.309104 -19.23756,-7.184574 -0.85953,-1.92015 -2.13179,-6.109629 -2.57525,-8.479586 -0.43521,-2.325832 -0.33821,-5.774366 0.21237,-7.555611 0.3513,-1.136542 2.02744,-4.027673 2.87985,-4.967139 1.1876,-1.308872 4.27092,-3.388236 5.68724,-3.834908 2.86838,-0.904612 6.83938,-0.768136 8.62031,0.296106 0.80468,0.480857 2.05065,1.954067 2.45715,2.905766 0.49506,1.159028 0.33145,2.62926 -0.42524,3.834908 -1.02216,1.628619 -1.52564,2.09858 -2.24833,2.09858 -1.26319,0 -2.4136,-0.918387 -3.25847,-2.601908 -0.36858,-0.734453 -0.46933,-1.344906 -0.46933,-2.840137 0,-2.367131 -0.33559,-2.666224 -1.48047,-1.317749 -1.07949,1.271468 -1.6305,2.907653 -1.6305,4.844149 0,1.366526 0.10753,1.837896 0.68169,2.986898 1.17079,2.342957 3.15765,3.595646 5.70447,3.595646 2.68834,0 5.41285,-2.186866 7.08966,-5.692159 0.92086,-1.925022 0.96806,-2.124637 0.96806,-4.015259 0,-4.159873 -1.52884,-7.06353 -4.8839,-9.273853 -2.25788,-1.487501 -4.38044,-1.987216 -8.34813,-1.965254 -2.71778,0.01505 -3.33789,0.08937 -4.78811,0.576192 -0.91626,0.307578 -2.33858,0.949359 -3.16064,1.426269 -2.77633,1.610658 -5.69393,4.818804 -9.97712,10.970907 -1.42954,2.053299 -3.37969,6.312376 -5.48095,11.972913 -1.14355,3.080591 -2.31885,5.742228 -4.58689,10.379728 -1.52619,3.12061 -1.99501,3.887778 -2.54433,4.171838 -0.66904,0.34598 -0.67257,0.359728 -0.67257,2.231388 0,1.01145 0.0401,1.843109 0.0892,1.881539 l 5.1e-4,5.17e-4 0.001,5.17e-4 h 5.1e-4 v 5.17e-4 h 5.1e-4 5e-4 c 0.30765,0 1.90171,-2.648998 3.67914,-6.110738 1.93841,-3.77527 4.08246,-8.658155 5.21892,-11.88868 0.27947,-0.794421 0.9285,-2.344265 1.44297,-3.444235 0.51448,-1.09997 1.12969,-2.48404 1.36644,-3.075264 0.41873,-1.04567 1.81553,-3.536797 3.7577,-6.701917 2.93668,-4.785838 7.3926,-9.049103 10.78603,-10.31875 2.1289,-0.796522 7.2933,-0.439583 9.43328,0.652157 0.71439,0.364452 2.44448,2.023736 2.44448,2.34456 v 5.16e-4 5.17e-4 l -5.1e-4,5.17e-4 -5.1e-4,5.17e-4 v 5.16e-4 h -5e-4 v 5.17e-4 5.17e-4 h -5.1e-4 l -5.1e-4,5.17e-4 v 5.16e-4 5.17e-4 5.17e-4 l -5e-4,5.17e-4 -0.001,5.17e-4 -5e-4,5.16e-4 v 5.17e-4 c -0.0432,0.03186 -0.45264,-0.199878 -0.94627,-0.539502 -1.42266,-0.978816 -2.47317,-1.348162 -4.484,-1.576648 -2.25008,-0.255672 -3.22582,-0.05797 -5.5514,1.124479 -2.32917,1.184267 -4.04313,2.558969 -6.00604,4.819344 -1.96208,2.259428 -3.20982,4.689035 -4.03139,7.849134 -2.01523,7.751426 -0.26438,15.748549 4.48653,20.490739 1.50232,1.49957 1.95394,1.753329 5.54836,3.120739 4.52842,1.72273 6.19549,2.02242 11.09824,1.99316 4.47802,-0.0267 4.52876,-0.03611 8.51438,-1.509985 2.31462,-0.85596 4.44803,-2.886232 6.0552,-5.761922 1.88421,-3.37139 3.33503,-7.098268 4.42268,-11.362097 0.99524,-3.901578 1.16428,-4.924218 1.46527,-8.888863 0.17629,-2.322158 0.46889,-5.772324 0.65128,-7.666716 0.18239,-1.894392 0.3869,-4.043656 0.45362,-4.776969 0.0667,-0.733313 0.42029,-2.483652 0.78611,-3.889169 1.9932,-7.658142 3.77254,-11.357016 7.004,-14.555184 3.54227,-3.505772 7.26425,-5.095623 11.59191,-4.952669 1.03077,0.03405 1.48106,0.06083 1.49213,0.112138 v 5.17e-4 c 5.1e-4,0.03107 -0.15545,0.07151 -0.43791,0.127641 -1.53257,0.304613 -4.19665,1.204488 -5.7957,1.956986 -2.9203,1.374271 -5.51703,4.387689 -7.92847,9.199955 -1.63914,3.271068 -2.59094,5.759271 -3.31321,8.666655 -0.67808,2.729469 -0.74145,10.063712 -0.11302,12.999723 1.01114,4.724091 2.06931,8.389924 3.39987,11.777059 2.02056,5.143625 2.30312,5.815578 2.70449,6.444568 0.19497,0.30555 0.68061,1.132981 1.08058,1.839681 2.41675,4.27019 7.35915,7.81281 12.82302,9.19117 3.01063,0.75949 7.67948,0.961581 10.25942,0.443901 4.20978,-0.84471 8.9517,-4.156693 10.34711,-7.226433 1.27306,-2.80058 1.56974,-4.239981 1.57677,-7.664131 0.007,-3.44974 -0.33365,-5.855995 -1.38823,-9.806637 -0.58037,-2.174093 -0.65177,-2.800469 -0.64976,-5.666321 0.002,-3.291303 0.23064,-4.73009 0.98934,-6.221842 1.42722,-2.806237 4.61944,-6.697564 6.38516,-7.784021 1.35212,-0.83197 3.29602,-1.487644 5.34765,-1.804024 1.35103,-0.208343 1.83689,-0.189208 3.04458,0.121956 1.93513,0.498589 2.70395,0.98024 3.21082,2.011247 0.65853,1.339484 0.43424,4.032145 -0.42727,5.128369 -0.32,0.407187 -0.33474,0.365911 -0.20527,-0.596346 0.1993,-1.481293 -0.40309,-3.3983 -1.37403,-4.369242 l -0.76786,-0.767912 -2.07754,0.109037 c -2.53966,0.13284 -3.49118,0.548472 -5.3517,2.339392 -2.173,2.09172 -3.48832,4.313149 -4.64569,7.842932 -1.11268,3.393471 -1.46072,5.145078 -1.46273,7.368026 -0.003,2.548313 0.61837,6.469177 1.32082,8.334375 1.08198,2.87295 1.98346,4.958265 2.41458,5.584155 0.22436,0.32572 0.79108,1.292143 1.25949,2.147673 1.65101,3.01557 6.09853,6.973355 9.06785,8.069275 1.72886,0.63809 5.96075,1.239384 8.60054,1.222664 3.61033,-0.0229 5.22715,-0.535134 8.36588,-2.652034 4.59945,-3.10206 5.56974,-4.625429 7.30354,-11.475269 0.54186,-2.140784 1.10061,-3.707275 1.86365,-5.22242 1.0465,-2.077993 1.16648,-2.220731 3.01518,-3.583761 1.05898,-0.780772 2.49428,-1.653157 3.18903,-1.9389 2.21494,-0.910998 5.14256,-0.647494 7.84028,0.7059 1.31368,0.659045 1.51629,0.852666 1.94778,1.855701 0.62515,1.453192 0.66672,3.093408 0.10238,4.059701 -0.66337,1.135833 -2.6025,2.031392 -4.44497,2.053104 -1.42183,0.01675 -1.48025,-0.0041 -1.68473,-0.607715 -0.28619,-0.844877 -0.12845,-0.925672 0.75417,-0.387573 1.39788,0.852235 3.17096,0.427589 3.90469,-0.935343 0.26216,-0.486943 0.38827,-1.230187 0.39229,-2.306319 0.007,-1.812211 -0.20818,-2.173125 -1.8824,-3.15743 -0.92073,-0.541324 -1.19489,-0.587465 -3.44498,-0.580843 -2.14498,0.0063 -2.59382,0.0766 -3.67002,0.575158 -1.68401,0.780136 -3.76381,2.756232 -4.51542,4.291211 -1.12612,2.29984 -1.27686,5.148212 -0.44754,8.459432 0.55935,2.23332 3.23682,6.487665 5.02277,7.981425 1.21833,1.01901 4.36537,3.328578 4.95789,3.638538 1.39538,0.729969 9.20913,2.260091 11.57265,2.266011 1.30612,0.003 4.83944,-0.853019 6.96801,-1.688269 1.62348,-0.63705 2.49443,-1.384954 3.80585,-3.270084 2.37519,-3.4143 3.37992,-7.958458 3.86566,-17.482654 0.0716,-1.405517 0.22717,-3.40583 0.34567,-4.44469 0.1185,-1.03886 0.3597,-4.055293 0.53674,-6.703467 0.50094,-7.493014 1.33044,-11.385289 3.32841,-15.62902 1.77767,-3.775788 4.46163,-7.109454 7.67708,-9.534819 1.81876,-1.37187 2.42523,-1.691975 4.33296,-2.288232 3.59073,-1.12227 7.2455,-1.672173 11.32885,-1.704289 3.81472,-0.03001 4.6359,0.127775 7.10487,1.364775 1.42924,0.71607 3.63347,2.841455 4.79317,4.621423 1.20548,1.85019 1.51444,3.522704 1.1637,6.301424 -0.44366,3.514873 -2.56826,7.330702 -4.98526,8.953976 -2.32173,1.5593 -6.71787,2.094995 -9.96546,1.214396 -3.25046,-0.881377 -5.9615,-3.717691 -6.36133,-6.655408 -0.12554,-0.922384 -0.0475,-1.250388 0.59756,-2.521293 1.23786,-2.438786 3.48881,-3.840615 5.74045,-3.573942 1.49533,0.177101 2.11678,0.524491 2.90875,1.627291 0.77871,1.084321 0.74751,1.109006 -0.79422,0.641304 -1.38871,-0.421278 -2.82705,-0.425491 -3.62795,-0.01137 -0.34454,0.178164 -0.96482,0.850982 -1.37809,1.495 -0.70332,1.096067 -0.75164,1.2916 -0.75164,3.064412 0,1.770821 0.047,1.960999 0.71464,2.922302 0.90384,1.30145 1.81328,1.675265 4.52759,1.859835 1.80515,0.122748 2.37144,0.06761 4.13833,-0.403076 3.11008,-0.828498 5.09262,-2.464321 6.53417,-5.391402 0.9696,-1.968743 1.15039,-4.397207 0.47186,-6.327779 -1.07331,-3.053749 -4.01064,-5.583763 -7.61879,-6.562907 -2.06017,-0.559071 -7.47466,-0.571446 -9.81493,-0.02222 -1.86818,0.438397 -4.21037,1.808576 -5.81851,3.404443 -3.03987,3.016678 -5.2013,7.876729 -5.91886,13.310299 -0.43657,3.305822 -0.16458,11.205433 0.54486,15.838826 1.94452,12.699794 3.92217,17.29494 9.38006,21.79867 2.57873,2.12791 4.61415,3.168067 7.63754,3.900537 3.45314,0.83659 5.84914,0.693572 8.99132,-0.535368 1.07717,-0.42129 3.83361,-2.655587 5.20422,-4.218347 3.69984,-4.21851 4.63612,-6.593438 5.13022,-13.014193 0.24522,-3.186555 0.45383,-4.127595 1.28179,-5.776908 1.32983,-2.64902 2.97991,-4.227743 6.02023,-5.758822 2.09888,-1.056978 4.06562,-1.496645 6.33244,-1.416451 l 1.81651,0.06408 -1.13988,0.601514 c -1.46209,0.771236 -3.57473,3.108934 -4.51238,4.992977 -1.71922,3.454446 -2.45917,6.540458 -2.45716,10.252604 0.002,4.31274 0.68339,7.112194 2.43536,10.012825 0.88644,1.46762 1.27355,1.866279 2.89151,2.972429 3.54385,2.42284 8.17495,3.296398 13.78804,2.600358 2.64204,-0.32762 4.50648,-1.223387 6.16772,-2.963127 2.50016,-2.61831 4.64464,-6.020165 6.32129,-10.025745 3.0742,-7.344358 4.72427,-10.124574 6.68773,-11.269596 2.51536,-1.466871 4.66663,-1.799724 7.4855,-1.158585 2.01614,0.458558 2.86196,1.050424 3.60869,2.524393 1.01011,1.993878 0.68238,3.82103 -0.86822,4.836914 -0.83576,0.547556 -3.01995,0.515841 -4.07548,-0.05891 l -0.778,-0.423747 0.667,-0.0615 c 1.59812,-0.147968 2.1663,-0.340168 2.89303,-0.978234 1.3329,-1.170315 0.95576,-2.296526 -1.10338,-3.293339 -0.86634,-0.419429 -1.30403,-0.482674 -2.85097,-0.410828 -2.17624,0.101067 -3.05653,0.477542 -4.54584,1.943551 -2.86421,2.819381 -3.94456,7.523155 -2.62846,11.443745 1.22088,3.636958 3.08934,5.867128 5.90213,7.047116 3.15094,1.321839 5.17044,1.571108 7.92949,0.977718 7.35979,-1.58289 13.28529,-5.534761 16.29435,-10.866521 1.4733,-2.610549 1.86695,-7.749203 0.82818,-10.807092 -1.0218,-3.007966 -1.66045,-4.19859 -6.32383,-11.778609 -0.48906,-0.794935 -1.40684,-2.541721 -2.03901,-3.881934 -3.17843,-6.738266 -3.71756,-11.928651 -1.6158,-15.551505 1.0081,-1.737698 2.13773,-2.606116 4.57625,-3.517098 1.63217,-0.609746 2.09457,-0.678914 5.12717,-0.766362 2.83609,-0.08179 3.62587,-0.02641 5.29647,0.369487 2.20547,0.52265 3.25858,1.14368 4.88643,2.884578 1.11682,1.194369 1.78925,2.45526 2.04154,3.82664 0.12592,0.684439 0.0702,0.86167 -0.36543,1.166854 -0.88858,0.62239 -1.06102,0.473209 -0.93309,-0.807186 0.10361,-1.036897 0.0469,-1.255165 -0.51038,-1.963188 -1.59347,-2.024462 -4.34036,-3.387306 -6.85956,-3.403409 -1.33954,-0.0085 -1.78725,0.100634 -3.22248,0.788065 -1.82177,0.872571 -3.12958,2.088828 -3.52607,3.27887 -0.34767,1.043598 -0.30852,3.637948 0.078,5.280298 0.44649,1.893401 1.85753,4.858741 3.4019,7.149434 3.0426,4.512924 5.43119,10.084122 6.49514,15.146879 0.85609,4.073623 2.50324,8.397604 4.27518,11.222054 1.14391,1.82338 3.39684,4.394386 4.53925,5.180046 3.18885,2.19301 4.11976,2.602116 6.41302,2.819466 2.89797,0.27467 5.27013,-0.954864 7.4556,-3.864364 1.54703,-2.05954 2.3349,-4.2223 3.10793,-8.530745 1.7643,-9.833281 5.24178,-16.052863 10.43175,-18.659843 1.48405,-0.745451 1.89617,-0.847897 3.88238,-0.965833 2.71305,-0.161092 3.75158,0.121183 4.49211,1.221631 0.27946,0.415285 0.50735,0.830336 0.50735,0.922941 0,0.0926 -0.98396,0.114771 -2.18701,0.04858 l -2.18751,-0.120923 -1.62341,0.853178 c -2.74293,1.44137 -3.61651,3.325357 -4.09525,8.831503 -0.49074,5.644329 -0.014,8.855443 1.87429,12.609566 1.82064,3.61956 3.53976,4.657648 8.80936,5.320088 1.77427,0.22305 3.90728,0.0831 6.38869,-0.418062 0.004,-9.2e-4 0.008,-0.0021 0.0127,-0.0031 0.0475,-0.012 0.0955,-0.02311 0.14343,-0.03411 0.0533,-0.0127 0.10731,-0.02129 0.16118,-0.03049 0.0144,-0.002 0.0287,-0.0052 0.0431,-0.0072 0.16655,-0.0355 0.33418,-0.0725 0.50379,-0.111104 l 0.001,-5.17e-4 h 5e-4 c 6.3e-4,-1.77e-4 0.002,-4.32e-4 0.003,-5.17e-4 0.0357,-0.0118 0.0713,-0.02511 0.10694,-0.03721 0.0412,-0.0145 0.0814,-0.02994 0.12265,-0.04444 0.0439,-0.0163 0.088,-0.03321 0.13178,-0.04961 0.0507,-0.0193 0.10181,-0.03831 0.15307,-0.05581 0.057,-0.0196 0.11473,-0.03506 0.17182,-0.05426 0.0566,-0.0199 0.11289,-0.04228 0.16877,-0.06408 0.0567,-0.021 0.11085,-0.0475 0.16523,-0.0739 0.0588,-0.029 0.11709,-0.0583 0.17638,-0.0863 0.0631,-0.031 0.1289,-0.057 0.19412,-0.0832 0.0632,-0.0251 0.12758,-0.04728 0.19159,-0.07028 0.0618,-0.0246 0.12379,-0.0486 0.18398,-0.077 0.0752,-0.0356 0.14947,-0.07419 0.22402,-0.111104 0.0878,-0.0432 0.17812,-0.08031 0.26862,-0.117306 0.0954,-0.0356 0.18819,-0.0756 0.28029,-0.118856 0.1077,-0.0545 0.21451,-0.110584 0.32285,-0.163814 0.12405,-0.0593 0.24446,-0.126086 0.36493,-0.192236 0.0597,-0.033 0.11923,-0.06664 0.17891,-0.09974 v 5.17e-4 5.17e-4 c 0.0686,-0.0381 0.13711,-0.0763 0.20527,-0.115239 0.001,-8.2e-4 0.002,-0.0021 0.004,-0.0031 0.0102,-0.006 0.0207,-0.01074 0.0309,-0.01654 0.003,-0.0018 0.006,-0.0036 0.008,-0.0052 0.0568,-0.0325 0.11316,-0.06582 0.16929,-0.09922 0.0137,-0.008 0.0269,-0.0166 0.0406,-0.02481 0.0569,-0.0341 0.11412,-0.06831 0.1708,-0.102836 l 5.1e-4,-5.17e-4 c 0.01,-0.009 0.0201,-0.01744 0.0304,-0.02584 0.0388,-0.0316 0.0794,-0.06237 0.12012,-0.09147 0.0412,-0.0303 0.0844,-0.05568 0.12772,-0.08268 h 5.1e-4 c 0.0117,-0.007 0.0233,-0.01559 0.034,-0.02429 0.0107,-0.009 0.021,-0.01777 0.0314,-0.02687 0.0299,-0.0296 0.0608,-0.05855 0.0912,-0.08785 0.0232,-0.0226 0.0481,-0.04356 0.0735,-0.06356 h 5.1e-4 c 0.0254,-0.02 0.0514,-0.03965 0.0765,-0.05994 0.0421,-0.0342 0.0818,-0.0714 0.11962,-0.110071 v -5.16e-4 c 0.0548,-0.0568 0.11259,-0.110962 0.16928,-0.165882 0.0526,-0.0484 0.10502,-0.0963 0.15408,-0.148311 0.057,-0.0638 0.11486,-0.127149 0.17435,-0.188619 0.064,-0.0628 0.12244,-0.130294 0.17993,-0.198954 0.0662,-0.0818 0.13501,-0.16235 0.20273,-0.24288 0.0642,-0.0788 0.12247,-0.161096 0.18196,-0.243396 0.0756,-0.10574 0.15203,-0.210859 0.22808,-0.316259 0.0914,-0.13382 0.18474,-0.266552 0.27825,-0.398942 0.0419,-0.0588 0.084,-0.118077 0.12468,-0.177767 1.01728,-2.28763 1.92999,-4.529907 2.54737,-6.284888 0.27946,-0.794426 0.929,-2.344263 1.44348,-3.444234 0.51447,-1.099971 1.12969,-2.484039 1.36644,-3.075265 0.41873,-1.045662 1.81602,-3.536797 3.7582,-6.701916 2.93666,-4.785835 7.39259,-9.0491 10.78603,-10.31875 2.1289,-0.796522 7.29229,-0.439588 9.43227,0.652156 0.71439,0.36445 2.44448,2.023734 2.44448,2.34456 v 5.17e-4 5.17e-4 l -0.001,5.16e-4 c -1.5e-4,4.97e-4 -3.1e-4,0.0019 -5.1e-4,0.0026 v 5.17e-4 l -0.001,5.17e-4 -5.1e-4,5.16e-4 v 5.17e-4 l -0.001,5.17e-4 v 5.17e-4 h -5.1e-4 v 5.17e-4 c -0.043,0.03211 -0.45297,-0.199747 -0.94678,-0.539502 -1.42265,-0.978812 -2.47215,-1.348166 -4.48298,-1.576648 -2.25008,-0.255672 -3.22633,-0.05849 -5.55191,1.123962 -2.32916,1.184269 -4.04262,2.55949 -6.00553,4.819861 -1.96209,2.259428 -3.21032,4.689041 -4.0319,7.849133 -2.01523,7.751427 -0.26387,15.748032 4.48704,20.490222 1.50232,1.499571 1.95292,1.753331 5.54735,3.12074 4.52841,1.72273 6.197,2.022459 11.09976,1.99316 4.47801,-0.0267 4.52724,-0.03611 8.51286,-1.509985 2.31461,-0.855959 4.44904,-2.886233 6.05621,-5.761922 1.88422,-3.37139 3.33452,-7.098261 4.42217,-11.362098 0.99524,-3.901573 1.1648,-4.924211 1.46578,-8.888863 0.17629,-2.322155 0.46839,-5.771286 0.65078,-7.665682 0.18239,-1.894387 0.38639,-4.044689 0.45311,-4.778003 0.0667,-0.733314 0.4213,-2.483652 0.78712,-3.889168 1.9932,-7.65814 3.77254,-11.356497 7.004,-14.554667 3.54227,-3.5057808 7.26375,-5.0961371 11.5914,-4.9531861 1.04374,0.03448 1.49106,0.06161 1.49112,0.1142049 -0.003,0.0309 -0.15763,0.07172 -0.43639,0.127124 -1.53256,0.304613 -4.19615,1.203446 -5.79519,1.955953 -2.92031,1.3742612 -5.51857,4.3876942 -7.93,9.1999552 -1.63914,3.271068 -2.5894,5.759273 -3.31168,8.666654 -0.67807,2.729465 -0.74247,10.063719 -0.11404,12.999724 1.01115,4.724092 2.06982,8.390435 3.40038,11.777575 2.02056,5.143622 2.30262,5.815062 2.70399,6.444052 0.19497,0.30555 0.68162,1.133487 1.08159,1.840197 2.41676,4.27019 7.35813,7.812294 12.822,9.190654 3.01062,0.75949 7.67949,0.96158 10.25942,0.4439 4.20979,-0.84471 8.9517,-4.156691 10.34711,-7.226432 1.27306,-2.80058 1.56975,-4.239983 1.57678,-7.664132 0.007,-3.449736 -0.33416,-5.855484 -1.38874,-9.806119 -0.58037,-2.174097 -0.65127,-2.800984 -0.64926,-5.666838 0.002,-3.291305 0.23116,-4.730081 0.98985,-6.221842 1.42723,-2.806238 4.61893,-6.697564 6.38465,-7.784021 1.35212,-0.831968 3.29551,-1.487127 5.34714,-1.803508 1.35103,-0.208336 1.83791,-0.189208 3.0456,0.121956 1.93513,0.498592 2.70344,0.980243 3.21031,2.011247 0.65853,1.339489 0.43374,4.031624 -0.42777,5.127853 -0.32,0.40719 -0.33322,0.365912 -0.20375,-0.596346 0.19931,-1.481296 -0.40411,-3.398307 -1.37505,-4.369243 l -0.76786,-0.767912 -2.07804,0.109038 c -2.53966,0.132847 -3.48967,0.548984 -5.35019,2.339909 -2.173,2.091716 -3.48983,4.312625 -4.6472,7.842415 -1.11268,3.393471 -1.46072,5.145079 -1.46273,7.368026 -0.003,2.548309 0.61837,6.469175 1.32082,8.334375 1.08198,2.872948 1.98498,4.958771 2.4161,5.584672 0.22436,0.325712 0.79108,1.291615 1.25949,2.147155 1.65101,3.01556 6.09803,6.973355 9.06734,8.069275 1.72887,0.63809 5.96075,1.239942 8.60054,1.223182 3.61033,-0.0229 5.22715,-0.535135 8.36588,-2.652035 4.59945,-3.10206 5.56923,-4.625949 7.30303,-11.475785 0.54186,-2.140787 1.10112,-3.706757 1.86416,-5.221904 1.0465,-2.077991 1.16649,-2.22125 3.01518,-3.584277 1.05898,-0.78077 2.49377,-1.65316 3.18852,-1.9389 2.21494,-0.910999 5.14307,-0.646978 7.840792,0.706417 1.313674,0.65905 1.51629,0.852152 1.94778,1.855184 0.62515,1.453193 0.666214,3.09341 0.101874,4.0597 -0.66337,1.135829 -2.60301,2.031434 -4.445476,2.053105 -1.42183,0.01675 -1.47924,-0.0041 -1.68372,-0.607715 -0.28619,-0.844871 -0.12895,-0.925664 0.75367,-0.387573 1.39788,0.852236 3.17045,0.427584 3.904174,-0.935343 0.26216,-0.486943 0.389287,-1.230188 0.393307,-2.30632 0.007,-1.812206 -0.208187,-2.172603 -1.882398,-3.156913 -0.920733,-0.541282 -1.194383,-0.588383 -3.444473,-0.58136 -2.14498,0.0063 -2.59585,0.07711 -3.67205,0.575676 -1.68401,0.780139 -3.76229,2.756238 -4.5139,4.291211 -1.12612,2.299841 -1.27737,5.147695 -0.44805,8.458915 0.55935,2.233323 3.23682,6.487655 5.02277,7.981425 1.21833,1.01901 4.3664,3.328567 4.95891,3.638537 1.395359,0.72996 9.208112,2.259992 11.571632,2.266012 1.30612,0.003 4.839445,-0.853019 6.968015,-1.688269 1.62348,-0.63705 2.493924,-1.384955 3.805344,-3.270085 2.37518,-3.4143 3.379917,-7.958458 3.865657,-17.482654 0.0716,-1.405517 0.228178,-3.405314 0.346678,-4.444173 0.1185,-1.03886 0.359692,-4.055805 0.536742,-6.703983 0.50094,-7.493016 1.329424,-11.38528 3.327394,-15.62902 1.77768,-3.775779 4.46214,-7.10842 7.67759,-9.533785 1.81876,-1.371877 2.425232,-1.693013 4.332962,-2.289266 3.59073,-1.1222794 7.245504,-1.6721831 11.328854,-1.7042891 3.81472,-0.03 4.635892,0.1277875 7.104862,1.3647741 1.42924,0.716069 3.633979,2.841454 4.793679,4.621424 1.20548,1.850191 1.513934,3.522697 1.163194,6.301424 -0.44366,3.514871 -2.568263,7.330701 -4.985263,8.953975 -2.32173,1.559303 -6.716855,2.095511 -9.964445,1.214913 -3.25046,-0.881372 -5.963021,-3.718213 -6.362851,-6.655924 -0.12554,-0.922386 -0.04742,-1.249873 0.597563,-2.520777 1.23786,-2.438788 3.489827,-3.84062 5.741467,-3.573942 1.49533,0.177093 2.115762,0.523974 2.907732,1.626774 0.7787,1.08433 0.748031,1.109004 -0.793709,0.641305 -1.38871,-0.421227 -2.827547,-0.425478 -3.628457,-0.01137 -0.34453,0.178167 -0.96381,0.850979 -1.37708,1.494999 -0.70332,1.096068 -0.752655,1.291597 -0.752655,3.064413 0,1.77082 0.04757,1.960998 0.715149,2.922302 0.90384,1.301455 1.813278,1.675267 4.527588,1.859835 1.80515,0.122744 2.37094,0.0676 4.13783,-0.403076 3.11008,-0.828507 5.093118,-2.464326 6.534668,-5.391402 0.9696,-1.968741 1.150397,-4.396688 0.471867,-6.327263 -1.07331,-3.053743 -4.010646,-5.58428 -7.618796,-6.563424 -2.06017,-0.55908 -7.474658,-0.571405 -9.814928,-0.02222 -1.86818,0.438403 -4.209869,1.808578 -5.817999,3.404443 -3.03988,3.01668 -5.2013,7.877249 -5.91886,13.310815 -0.43657,3.305823 -0.165602,11.204917 0.543838,15.83831 1.94452,12.699806 3.922687,17.295466 9.380567,21.799186 2.57873,2.12792 4.614666,3.167551 7.638056,3.900021 3.45314,0.83659 5.847614,0.693582 8.989794,-0.535368 1.07717,-0.42128 3.833608,-2.655587 5.204218,-4.218347 3.69984,-4.2185 4.637133,-6.592399 5.131233,-13.01316 0.24522,-3.18655 0.453835,-4.128632 1.281795,-5.777941 1.32983,-2.649021 2.979907,-4.227224 6.020227,-5.758305 2.09888,-1.056979 4.065621,-1.497132 6.332441,-1.416968 l 1.816509,0.06408 -1.140387,0.601513 c -1.46209,0.771229 -3.574733,3.108935 -4.512383,4.992977 -1.71922,3.454442 -2.458149,6.540981 -2.456139,10.253121 0.002,4.312735 0.681868,7.112196 2.433838,10.012826 0.88644,1.46761 1.274567,1.865761 2.892527,2.971911 3.54385,2.42284 8.1749451,3.296408 13.7880349,2.600358 0.9158003,-0.113248 1.73822939,-0.29499 2.49111119,-0.556555 -0.0017273,-0.0023 -0.0027022,-0.0053 -0.003041,-0.0088 -0.0013589,-0.0141 6.001e-5,-0.02196 0.0035479,-0.02687 -0.01749213,0.003 -0.035112,0.006 -0.05271121,0.0083 -0.0132343,0.0015 -0.0319728,0.0054 -0.0451086,0.0015 -0.002656,-7.5e-4 -0.006456,-0.0011 -0.009123,-0.0021 -1.2408e-4,-5.9e-5 -6.9285e-4,9.7e-5 -0.001014,0 v -5.17e-4 h -5.0684e-4 l -5.0684e-4,-5.17e-4 -5.0684e-4,-5.16e-4 v -5.17e-4 l -5.0684e-4,-5.17e-4 -5.0684e-4,-5.17e-4 c -0.004952,-0.01233 -0.00323,-0.02659 -0.005068,-0.03979 0.00362,-0.0027 0.006767,-0.0055 0.0106436,-0.0078 0.0109807,-0.0065 0.0352578,-0.0065 0.0476428,-0.0093 0.02221959,-0.0031 0.0439961,-0.0067 0.06639584,-0.0083 0.02186748,-0.0028 0.04328572,-0.0074 0.06487533,-0.01189 0.02017563,-0.0034 0.04025438,-0.0089 0.05980694,-0.01499 0.01899753,-0.0046 0.03765566,-0.0098 0.05676591,-0.01395 0.0224805,-0.0048 0.0446128,-0.01024 0.0674095,-0.01344 0.019088,-0.0027 0.0385087,-0.0056 0.0577796,-0.0067 0.0142114,-0.0018 0.0280919,-0.0047 0.0415608,-0.0098 0.0109328,-0.0033 0.0222229,-0.0058 0.0334513,-0.0078 h 5.0684e-4 v -5.17e-4 h 5.0684e-4 c 0.0122468,-0.0071 0.0246631,-0.0139 0.0380129,-0.0186 0.0104141,-0.003 0.0210685,-0.0061 0.031424,-0.0093 0.0100852,-0.0037 0.0202218,-0.0075 0.0304103,-0.01085 0.010745,-0.004 0.0209363,-0.0087 0.0319308,-0.01189 0.0120264,-0.0025 0.0242289,-0.0047 0.0359855,-0.0083 0.0161489,-0.005 0.0322997,-0.01017 0.0486565,-0.01447 0.0174518,-0.0044 0.034977,-0.0076 0.0527112,-0.0098 1.12996027,-0.492121 2.10345177,-1.192845 3.01568907,-2.148189 0.6648077,-0.696251 1.3046807,-1.448521 1.91737,-2.252576 0.1724563,-0.356144 0.3371005,-0.715881 0.499236,-1.076937 0.1817548,-0.385158 0.3579082,-0.773608 0.5610702,-1.14825 0.1493342,-0.285954 0.3013392,-0.570513 0.4480452,-0.857829 0.1261006,-0.281497 0.2637792,-0.556983 0.3958409,-0.835608 0.084117,-0.168102 0.153481,-0.343777 0.235173,-0.513147 l 5.069e-4,-5.16e-4 c -0.0012,0.0041 -0.0058,0.01814 -0.0076,0.02377 0.069787,-0.123474 0.085837,-0.275292 0.1555994,-0.398426 0.065678,-0.186234 0.1305039,-0.372548 0.1981739,-0.558105 0.066609,-0.170589 0.1353951,-0.340024 0.2037491,-0.504879 0.040991,-0.103254 0.066932,-0.168607 0.092751,-0.230477 0.050883,-0.08489 0.1022549,-0.169265 0.1540789,-0.253731 0.070938,-0.138233 0.1499911,-0.27181 0.2194611,-0.410828 0.066988,-0.122788 0.1349956,-0.245246 0.2017217,-0.367936 0.043969,-0.119271 0.086574,-0.236785 0.1282301,-0.352433 0.00142,-0.0026 0.00263,-0.0052 0.00405,-0.0078 0.1175805,-0.234216 0.2421189,-0.46457 0.3628964,-0.697115 0.090723,-0.168455 0.1789127,-0.339663 0.2488577,-0.517797 0.079869,-0.211399 0.156219,-0.424059 0.210338,-0.643889 0.035175,-0.160401 0.070464,-0.320958 0.09782,-0.482658 0.2142348,-0.500669 0.4389148,-1.005146 0.6421648,-1.439705 0.411379,-0.879553 0.886395,-1.940664 1.18144,-2.632914 0.02771,-0.04451 0.09246,-0.148599 0.180941,-0.307992 -0.0038,0.0085 -0.01616,0.03352 -0.01166,0.02532 0.07529,-0.137613 0.150602,-0.27392 0.232132,-0.407727 0.07269,-0.131006 0.149745,-0.25891 0.220475,-0.390674 0.09384,-0.187376 0.18974,-0.373795 0.290418,-0.557589 0.02758,-0.05043 0.0554,-0.100805 0.08363,-0.150895 2.66e-4,-0.103093 1.8e-4,-0.206437 5.07e-4,-0.309542 0.682851,-1.271209 1.703139,-3.020119 2.945745,-5.04517 2.936674,-4.785838 7.393103,-9.049104 10.786537,-10.31875 2.128896,-0.796522 7.291773,-0.439583 9.431758,0.652156 0.714387,0.364453 2.444482,2.023737 2.444482,2.34456 v 5.17e-4 5.17e-4 c -3.77e-4,0.0016 -0.0013,0.0035 -0.002,0.0047 l -5.07e-4,5.16e-4 -5.06e-4,5.17e-4 v 5.17e-4 c -0.04323,0.03186 -0.452135,-0.199878 -0.945761,-0.539502 -1.422662,-0.978816 -2.474186,-1.348162 -4.485014,-1.576648 -2.250081,-0.255672 -3.225313,-0.05797 -5.550895,1.124479 -2.329165,1.184267 -4.042624,2.558969 -6.00553,4.819344 -1.962084,2.259428 -3.209824,4.689035 -4.031393,7.849134 -2.015232,7.751426 -0.264373,15.748547 4.486534,20.490738 1.50232,1.499562 1.953428,1.753329 5.547855,3.12074 4.528414,1.722721 6.194978,2.022417 11.097735,1.99316 4.478018,-0.02672 4.529775,-0.03608 8.515394,-1.509985 2.314618,-0.85596 4.448025,-2.88623 6.0552,-5.761922 1.88421,-3.371386 3.334517,-7.098265 4.422166,-11.362097 0.995242,-3.901578 1.163778,-4.924219 1.464763,-8.888864 0.176293,-2.322158 0.46991,-5.772323 0.652301,-7.666715 0.182389,-1.894392 0.385888,-4.043657 0.452607,-4.77697 0.06672,-0.733313 0.421303,-2.483651 0.78712,-3.889168 1.993202,-7.658142 3.772544,-11.357016 7.004001,-14.555184 3.542269,-3.505772 7.264243,-5.095623 11.591903,-4.952669 1.030767,0.03405 1.480559,0.06083 1.491626,0.112138 v 5.17e-4 c 8.01e-4,0.03107 -0.155444,0.07151 -0.437908,0.12764 -1.53257,0.304613 -4.196649,1.204489 -5.795699,1.956987 -2.920297,1.374271 -5.51704,4.387689 -7.928474,9.199955 -1.639138,3.271068 -2.590425,5.759271 -3.312697,8.666655 -0.678072,2.729469 -0.741451,10.063712 -0.113025,12.999723 1.011146,4.724091 2.068804,8.389924 3.399366,11.777059 2.020559,5.143622 2.302615,5.815578 2.703984,6.444568 0.194975,0.305547 0.681626,1.132976 1.081593,1.839681 2.416754,4.270189 7.358135,7.812803 12.822,9.19117 3.010626,0.759488 7.679991,0.961578 10.259932,0.443901 4.209784,-0.844712 8.952206,-4.156695 10.347616,-7.226433 1.27306,-2.800577 1.56924,-4.239977 1.57627,-7.664131 0.007,-3.449741 -0.33315,-5.855995 -1.38773,-9.806637 -0.58037,-2.174093 -0.65228,-2.800469 -0.65027,-5.666321 0.002,-3.291303 0.23065,-4.73009 0.98935,-6.221842 1.42722,-2.806237 4.61994,-6.697564 6.38566,-7.784021 1.35212,-0.83197 3.29551,-1.487645 5.34714,-1.804025 1.35103,-0.208343 1.8374,-0.189207 3.04509,0.121957 1.93513,0.498589 2.70344,0.98024 3.21031,2.011247 0.65853,1.339484 0.43425,4.032145 -0.42726,5.128369 -0.32,0.407187 -0.33474,0.365911 -0.20527,-0.596346 0.1993,-1.481293 -0.4031,-3.398301 -1.37404,-4.369243 l -0.76786,-0.767911 -2.07703,0.109037 c -2.53966,0.13284 -3.49118,0.548472 -5.3517,2.339392 -2.173,2.09172 -3.48933,4.313149 -4.6467,7.842932 -1.11268,3.393471 -1.46022,5.145078 -1.46223,7.368026 -0.003,2.548313 0.61837,6.469177 1.32082,8.334375 1.08198,2.87295 1.98346,4.958263 2.41458,5.584155 0.22436,0.325716 0.79109,1.292142 1.2595,2.147673 1.65101,3.015572 6.09852,6.973357 9.06784,8.069274 1.72886,0.638089 5.96126,1.23939 8.60105,1.222665 3.61033,-0.02287 5.22715,-0.535139 8.36588,-2.652035 4.59945,-3.102066 5.56873,-4.625433 7.30253,-11.475268 0.54186,-2.140788 1.10111,-3.707275 1.86415,-5.22242 1.0465,-2.077993 1.16648,-2.220731 3.01518,-3.583761 1.05898,-0.780772 2.49377,-1.653157 3.18852,-1.9389 2.21494,-0.910998 5.14257,-0.647494 7.84029,0.7059 1.31368,0.659045 1.5173,0.852666 1.94879,1.855701 0.62515,1.453192 0.66622,3.093408 0.10188,4.059701 -0.66337,1.135833 -2.60301,2.031392 -4.44548,2.053104 -1.42183,0.01675 -1.47924,-0.0041 -1.68372,-0.607715 -0.28619,-0.844877 -0.12845,-0.925672 0.75417,-0.387573 1.39788,0.852235 3.17096,0.427589 3.90469,-0.935343 0.26216,-0.486943 0.38776,-1.230187 0.39178,-2.30632 0.007,-1.812211 -0.20868,-2.173125 -1.8829,-3.15743 -0.92073,-0.541324 -1.19438,-0.587465 -3.44447,-0.580843 -2.14498,0.0063 -2.59433,0.0766 -3.67053,0.575159 -1.68401,0.780136 -3.76331,2.756232 -4.51492,4.291211 -1.12612,2.29984 -1.27635,5.148211 -0.44703,8.459432 0.55935,2.233325 3.23581,6.487661 5.02176,7.981425 1.21833,1.019004 4.36639,3.328577 4.95891,3.638538 1.39538,0.729972 9.20861,2.260091 11.57213,2.266011 1.30612,0.0033 4.83995,-0.853023 6.96852,-1.688269 1.62348,-0.637055 2.49342,-1.38495 3.80484,-3.270085 2.37519,-3.414297 3.38043,-7.958461 3.86617,-17.482653 0.0716,-1.405517 0.22716,-3.40583 0.34566,-4.44469 0.1185,-1.03886 0.3597,-4.055293 0.53674,-6.703467 0.50094,-7.493014 1.32993,-11.385289 3.3279,-15.62902 1.77767,-3.775788 4.46214,-7.109454 7.67759,-9.534819 1.81876,-1.37187 2.42473,-1.691975 4.33246,-2.288232 3.59073,-1.12227 7.24601,-1.672173 11.32936,-1.704289 3.81472,-0.03001 4.63589,0.127775 7.10486,1.364775 1.42924,0.71607 3.63297,2.841455 4.79267,4.621423 1.20548,1.85019 1.51545,3.522704 1.16471,6.301424 -0.44366,3.514873 -2.56928,7.330702 -4.98628,8.953976 -2.32173,1.5593 -6.71736,2.094995 -9.96495,1.214396 -3.25046,-0.881377 -5.9615,-3.717691 -6.36133,-6.655408 -0.12554,-0.922384 -0.0475,-1.250388 0.59756,-2.521293 1.23786,-2.438786 3.48882,-3.840615 5.74046,-3.573942 1.49533,0.177101 2.11627,0.524491 2.90824,1.627291 0.77871,1.084321 0.74852,1.109006 -0.79321,0.641304 -1.38871,-0.421278 -2.82755,-0.425492 -3.62845,-0.01137 -0.34454,0.178164 -0.96432,0.850982 -1.37759,1.495 -0.70332,1.096067 -0.75215,1.2916 -0.75215,3.064412 0,1.770821 0.047,1.960999 0.71464,2.922302 0.90384,1.30145 1.81328,1.675265 4.52759,1.859835 1.80515,0.122748 2.37094,0.06761 4.13783,-0.403076 3.11008,-0.828498 5.09261,-2.464321 6.53416,-5.391402 0.9696,-1.968743 1.15091,-4.397207 0.47238,-6.327779 -1.07331,-3.053749 -4.01014,-5.583763 -7.61829,-6.562907 -2.06017,-0.559071 -7.47517,-0.571445 -9.81544,-0.02222 -1.86818,0.438397 -4.21036,1.808576 -5.8185,3.404443 -3.03987,3.016678 -5.2008,7.876729 -5.91836,13.310299 -0.43657,3.305822 -0.1656,11.205433 0.54384,15.838826 1.94452,12.699799 3.92268,17.29494 9.38057,21.79867 2.57873,2.12791 4.61416,3.168066 7.63755,3.900537 3.45314,0.836585 5.84964,0.69357 8.99182,-0.535368 1.07717,-0.421291 3.83259,-2.655584 5.2032,-4.218347 3.69984,-4.218505 4.63663,-6.593433 5.13073,-13.014193 0.24522,-3.186555 0.45384,-4.127595 1.2818,-5.776908 1.32983,-2.64902 2.9799,-4.227743 6.02022,-5.758822 2.09888,-1.056978 4.06512,-1.496645 6.33194,-1.416451 l 1.81752,0.06408 -1.14039,0.601514 c -1.46209,0.771236 -3.57473,3.108933 -4.51238,4.992976 -1.71922,3.454446 -2.45916,6.54046 -2.45715,10.252605 0.002,4.312739 0.68288,7.112189 2.43485,10.012825 0.88644,1.467612 1.27406,1.866273 2.89202,2.972429 3.54385,2.422833 8.17545,3.296402 13.78854,2.600358 2.64204,-0.327624 4.50546,-1.223393 6.1667,-2.963127 2.50016,-2.618314 4.64566,-6.020164 6.32231,-10.025745 3.0742,-7.344357 4.72376,-10.124574 6.68722,-11.269596 2.51536,-1.466871 4.66663,-1.799725 7.4855,-1.158586 2.01614,0.458558 2.86247,1.050425 3.6092,2.524394 1.01011,1.993878 0.68137,3.82103 -0.86923,4.836914 -0.83576,0.547556 -3.01996,0.515842 -4.07549,-0.05891 l -0.77749,-0.423747 0.667,-0.0615 c 1.59812,-0.147968 2.1658,-0.340169 2.89253,-0.978235 1.3329,-1.170315 0.95626,-2.296526 -1.10288,-3.293339 -0.86634,-0.419428 -1.30453,-0.482673 -2.85147,-0.410827 -2.17624,0.101068 -3.05602,0.477541 -4.54533,1.94355 -2.86421,2.819382 -3.94457,7.523157 -2.62847,11.443746 1.22088,3.636957 3.08935,5.86713 5.90214,7.047115 3.15094,1.321839 5.17044,1.571112 7.92949,0.977718 7.35979,-1.582887 13.28478,-5.534752 16.29384,-10.86652 1.4733,-2.610541 1.86745,-7.749203 0.82868,-10.807092 -1.0218,-3.007966 -1.66095,-4.19859 -6.32433,-11.778609 -0.48906,-0.794935 -1.40633,-2.541721 -2.0385,-3.881934 -3.17843,-6.738266 -3.71757,-11.928651 -1.61581,-15.551505 1.0081,-1.737698 2.13773,-2.606116 4.57625,-3.517098 1.63217,-0.609746 2.09508,-0.678914 5.12768,-0.766362 2.83609,-0.08179 3.62587,-0.02641 5.29647,0.369487 2.20547,0.52265 3.25756,1.14368 4.88541,2.884578 1.11682,1.194369 1.78977,2.45526 2.04206,3.82664 0.12592,0.684439 0.0697,0.86167 -0.36594,1.166854 -0.88858,0.62239 -1.06001,0.473209 -0.93208,-0.807186 0.10361,-1.036897 0.0464,-1.255165 -0.51089,-1.963188 -1.59347,-2.024462 -4.34086,-3.387307 -6.86006,-3.40341 -1.33954,-0.0085 -1.78674,0.100635 -3.22197,0.788066 -1.82177,0.872571 -3.13009,2.088828 -3.52658,3.27887 -0.34767,1.043598 -0.30851,3.637948 0.078,5.280298 0.44649,1.893401 1.85804,4.858741 3.40241,7.149434 3.0426,4.512924 5.43169,10.084122 6.49564,15.146879 0.85609,4.073623 2.50324,8.397602 4.27518,11.222054 1.14391,1.823383 3.39633,4.39439 4.53874,5.180046 3.18885,2.193016 4.12027,2.602112 6.41353,2.819466 2.89797,0.274667 5.27013,-0.954859 7.4556,-3.864364 1.54703,-2.059544 2.3349,-4.222296 3.10793,-8.530745 1.7643,-9.833281 5.24127,-16.052863 10.43124,-18.659843 1.48405,-0.745451 1.89567,-0.847897 3.88188,-0.965833 2.71305,-0.161092 3.75209,0.121183 4.49262,1.221631 0.27946,0.415285 0.50785,0.830336 0.50785,0.922941 0,0.0926 -0.98447,0.114775 -2.18752,0.04858 l -2.18751,-0.120923 -1.6234,0.853178 c -2.74293,1.441371 -3.61601,3.325355 -4.09475,8.831502 -0.49074,5.644328 -0.0135,8.855439 1.87479,12.609567 1.82064,3.619559 3.53926,4.657646 8.80886,5.320088 1.77427,0.223044 3.90678,0.08308 6.38819,-0.418062 0.004,-9.23e-4 0.008,-0.0016 0.0117,-0.0026 0.0475,-0.01202 0.095,-0.02307 0.14292,-0.03411 0.0533,-0.01265 0.10731,-0.02126 0.16118,-0.03049 0.0144,-0.0024 0.0287,-0.0045 0.0431,-0.0067 0.16655,-0.03549 0.33469,-0.07245 0.5043,-0.111105 h 5.1e-4 l 5.1e-4,-5.16e-4 c 1.8e-4,-1.07e-4 8.2e-4,-4.14e-4 0.001,-5.17e-4 h 5.1e-4 5.1e-4 5e-4 c 2.3e-4,-2.2e-5 9.5e-4,4e-6 0.001,0 0.0357,-0.01184 0.0714,-0.02507 0.10694,-0.03721 0.0412,-0.01446 0.082,-0.0299 0.12316,-0.04444 0.0439,-0.01634 0.088,-0.03321 0.13178,-0.04961 0.0507,-0.01931 0.1013,-0.03828 0.15256,-0.05581 0.057,-0.01956 0.11473,-0.03515 0.17182,-0.05426 0.0566,-0.0199 0.11239,-0.04231 0.16827,-0.06408 0.0567,-0.02103 0.11135,-0.04753 0.16573,-0.0739 0.0588,-0.02904 0.1176,-0.05831 0.17689,-0.0863 0.0631,-0.03102 0.12839,-0.05696 0.19361,-0.0832 0.0632,-0.0251 0.12758,-0.04728 0.19159,-0.07028 0.0618,-0.02458 0.12379,-0.04861 0.18398,-0.077 0.0752,-0.03558 0.14896,-0.0742 0.22351,-0.111104 0.0878,-0.04316 0.17813,-0.08025 0.26863,-0.117306 0.0954,-0.03562 0.18919,-0.07562 0.28129,-0.118855 0.1077,-0.05451 0.21452,-0.11058 0.32286,-0.163815 0.12405,-0.05935 0.24395,-0.126089 0.36442,-0.192236 0.0597,-0.03297 0.11923,-0.06662 0.17891,-0.09973 v 5.16e-4 5.17e-4 c 0.0686,-0.03806 0.1366,-0.07628 0.20476,-0.115238 10e-4,-8.24e-4 0.002,-0.0018 0.004,-0.0026 0.0102,-0.0059 0.0212,-0.01117 0.0314,-0.01705 0.003,-0.0016 0.006,-0.0031 0.008,-0.0047 0.0568,-0.03253 0.11316,-0.06582 0.16929,-0.09922 0.0137,-0.0081 0.0269,-0.01664 0.0405,-0.02481 0.0569,-0.03407 0.11413,-0.06833 0.17081,-0.102836 l 5e-4,-5.17e-4 c 0.01,-0.0088 0.0201,-0.01741 0.0304,-0.02584 0.0388,-0.03165 0.0794,-0.0624 0.12013,-0.09147 0.0412,-0.03034 0.0849,-0.05571 0.12823,-0.08268 h 5e-4 c 0.0117,-0.0072 0.0228,-0.01565 0.0335,-0.02429 0.0107,-0.0087 0.021,-0.01776 0.0314,-0.02687 0.0299,-0.02956 0.0613,-0.05864 0.0917,-0.08785 0.0232,-0.0226 0.0476,-0.04356 0.073,-0.06356 h 5.1e-4 c 0.0254,-0.01999 0.0514,-0.03965 0.0765,-0.05994 0.0421,-0.03417 0.0817,-0.0714 0.11961,-0.110071 v -5.16e-4 c 0.0548,-0.0568 0.11209,-0.110962 0.16878,-0.165882 0.0526,-0.04839 0.10553,-0.09628 0.15459,-0.148311 0.057,-0.0638 0.11435,-0.127156 0.17384,-0.188619 0.064,-0.06279 0.12295,-0.130288 0.18044,-0.198954 0.0662,-0.08178 0.1345,-0.162344 0.20222,-0.242879 0.0642,-0.07876 0.12298,-0.161095 0.18247,-0.243396 0.0756,-0.105745 0.15202,-0.210868 0.22807,-0.31626 0.0914,-0.133822 0.18475,-0.266552 0.27826,-0.398942 0.0419,-0.05879 0.0834,-0.118078 0.12417,-0.177767 1.01728,-2.287638 1.9305,-4.529907 2.54788,-6.284888 0.27946,-0.794426 0.929,-2.344263 1.44348,-3.444234 0.51447,-1.099971 1.13019,-2.484039 1.36694,-3.075265 0.41873,-1.045662 1.81552,-3.536797 3.7577,-6.701916 2.93666,-4.785835 7.39259,-9.0491 10.78603,-10.31875 2.1289,-0.796522 7.29279,-0.439588 9.43277,0.652156 0.71439,0.36445 2.44398,2.023734 2.44398,2.34456 v 5.17e-4 5.17e-4 l -5.1e-4,5.17e-4 c -1.5e-4,4.97e-4 -3.1e-4,0.0019 -5.1e-4,0.0026 l -5e-4,5.17e-4 -5.1e-4,5.17e-4 -0.001,5.17e-4 -5.1e-4,5.16e-4 -5.1e-4,5.17e-4 v 5.17e-4 h -5e-4 l -5.1e-4,5.17e-4 c -0.043,0.03211 -0.45246,-0.199747 -0.94627,-0.539502 -1.42265,-0.978812 -2.47266,-1.348166 -4.48349,-1.576648 -2.25008,-0.255672 -3.22633,-0.05849 -5.55191,1.123962 -2.32916,1.184269 -4.04262,2.55949 -6.00553,4.819861 -1.96209,2.259428 -3.21032,4.689041 -4.0319,7.849133 -2.01523,7.751427 -0.26336,15.748031 4.48755,20.490222 1.50232,1.499566 1.95292,1.753328 5.54735,3.12074 4.52841,1.722721 6.19649,2.022456 11.09925,1.99316 4.47801,-0.02672 4.52775,-0.03608 8.51337,-1.509985 2.31461,-0.855958 4.44904,-2.886225 6.05621,-5.761922 1.88422,-3.371388 3.33452,-7.098261 4.42217,-11.362097 0.99524,-3.901574 1.16429,-4.924213 1.46527,-8.888864 0.17629,-2.322155 0.46839,-5.771286 0.65078,-7.665682 0.18239,-1.894387 0.3869,-4.044689 0.45362,-4.778003 0.0667,-0.733314 0.42028,-2.483652 0.7861,-3.889168 1.9932,-7.65814 3.77305,-11.356497 7.00451,-14.554667 3.54227,-3.5057815 7.26426,-5.0961366 11.59191,-4.953186 1.04374,0.034484 1.49156,0.061606 1.49162,0.1142049 -0.003,0.030898 -0.15864,0.071716 -0.4374,0.127124 -1.53256,0.3046127 -4.19666,1.2034458 -5.7957,1.955953 -2.92031,1.3742641 -5.51755,4.3876941 -7.92898,9.1999551 -1.63914,3.271068 -2.58991,5.759274 -3.31219,8.666655 -0.67807,2.729465 -0.74247,10.063718 -0.11404,12.999723 1.01115,4.724092 2.07033,8.390436 3.40089,11.777576 2.02056,5.143622 2.30211,5.815061 2.70348,6.444051 0.19497,0.305546 0.68111,1.133491 1.08108,1.840197 2.41676,4.270187 7.35915,7.812287 12.82302,9.190654 3.01062,0.75949 7.67898,0.96158 10.25891,0.4439 4.20979,-0.844711 8.95221,-4.156697 10.34762,-7.226432 1.27306,-2.800579 1.56924,-4.239979 1.57627,-7.664131 0.007,-3.449736 -0.33365,-5.855485 -1.38823,-9.80612 -0.58037,-2.174097 -0.65127,-2.800984 -0.64926,-5.666838 0.002,-3.291305 0.23015,-4.730081 0.98884,-6.221842 1.42723,-2.806238 4.61943,-6.697564 6.38515,-7.784021 1.35212,-0.831968 3.29602,-1.487127 5.34765,-1.803508 1.35103,-0.208336 1.8374,-0.189207 3.04509,0.121957 1.93513,0.498592 2.70395,0.980242 3.21082,2.011246 0.65853,1.339489 0.43323,4.031624 -0.42828,5.127853 -0.32,0.40719 -0.33322,0.365912 -0.20375,-0.596346 0.19931,-1.481296 -0.40411,-3.398307 -1.37505,-4.369243 l -0.76735,-0.767911 -2.07804,0.109037 c -2.53966,0.132847 -3.49018,0.548984 -5.3507,2.339909 -2.173,2.091716 -3.48881,4.312625 -4.64618,7.842415 -1.11268,3.393471 -1.46124,5.145079 -1.46325,7.368026 -0.003,2.548309 0.61837,6.469175 1.32082,8.334375 1.08198,2.872948 1.98448,4.958771 2.4156,5.584672 0.22436,0.325712 0.79108,1.29162 1.25949,2.147156 1.65101,3.015567 6.09803,6.973357 9.06734,8.069274 1.72887,0.638091 5.96025,1.239937 8.60004,1.223182 3.61033,-0.02289 5.22765,-0.535136 8.36638,-2.652035 4.59945,-3.102061 5.56974,-4.625946 7.30354,-11.475785 0.54186,-2.140787 1.1001,-3.706757 1.86314,-5.221904 1.0465,-2.077991 1.167,-2.22125 3.01569,-3.584277 1.05898,-0.78077 2.49478,-1.65316 3.18953,-1.9389 2.21494,-0.910999 5.14257,-0.646978 7.84029,0.706417 1.31368,0.65905 1.51629,0.852152 1.94778,1.855184 0.62515,1.453193 0.66621,3.093411 0.10187,4.059701 -0.66337,1.135829 -2.60301,2.031433 -4.44548,2.053104 -1.42183,0.01675 -1.47923,-0.0041 -1.68371,-0.607715 -0.28619,-0.844871 -0.12896,-0.925664 0.75366,-0.387573 1.39788,0.852236 3.17045,0.427584 3.90418,-0.935343 0.26216,-0.486943 0.38878,-1.230188 0.3928,-2.30632 0.007,-1.812206 -0.20767,-2.172603 -1.88189,-3.156913 -0.92073,-0.541282 -1.19489,-0.588383 -3.44498,-0.58136 -2.14498,0.0063 -2.59483,0.07711 -3.67103,0.575676 -1.68401,0.780139 -3.76331,2.756238 -4.51492,4.291211 -1.12612,2.299841 -1.27686,5.147695 -0.44754,8.458915 0.55935,2.233322 3.23682,6.487657 5.02277,7.981425 1.21833,1.019004 4.36539,3.328568 4.9579,3.638538 1.39538,0.729963 9.20912,2.259991 11.57264,2.266011 1.30612,0.0033 4.83944,-0.85302 6.96801,-1.688269 1.62348,-0.637047 2.49393,-1.384949 3.80535,-3.270085 2.37518,-3.414299 3.37992,-7.958461 3.86566,-17.482653 0.0716,-1.405517 0.22817,-3.405315 0.34667,-4.444174 0.1185,-1.03886 0.35919,-4.055805 0.53624,-6.703983 0.50094,-7.493016 1.33044,-11.38528 3.32841,-15.62902 1.77768,-3.775779 4.46112,-7.10842 7.67657,-9.533785 1.81876,-1.371877 2.42574,-1.693013 4.33347,-2.289266 3.59073,-1.1222792 7.24551,-1.6721833 11.32886,-1.704289 3.81472,-0.029999 4.63538,0.1277769 7.10435,1.364775 1.42924,0.716069 3.63449,2.841453 4.79419,4.621423 1.20548,1.850191 1.51393,3.522697 1.16319,6.301424 -0.44366,3.514871 -2.56826,7.330702 -4.98526,8.953976 -2.32173,1.559303 -6.71686,2.09551 -9.96445,1.214912 -3.25046,-0.881372 -5.96302,-3.718213 -6.36285,-6.655924 -0.12554,-0.922386 -0.0479,-1.249872 0.59706,-2.520776 1.23786,-2.438788 3.49033,-3.84062 5.74197,-3.573942 1.49533,0.177093 2.11576,0.523974 2.90773,1.626774 0.7787,1.08433 0.74803,1.109003 -0.79371,0.641304 -1.38871,-0.421227 -2.82754,-0.425479 -3.62845,-0.01137 -0.34453,0.178167 -0.96432,0.85098 -1.37759,1.495 -0.70332,1.096068 -0.75215,1.291596 -0.75215,3.064412 0,1.77082 0.047,1.960998 0.71464,2.922302 0.90384,1.301455 1.81379,1.675267 4.5281,1.859835 1.80515,0.122744 2.37094,0.0676 4.13783,-0.403076 3.11008,-0.828507 5.09312,-2.464326 6.53467,-5.391402 0.9696,-1.968741 1.15039,-4.396688 0.47186,-6.327263 -1.07331,-3.053743 -4.01115,-5.584279 -7.6193,-6.563423 -2.06017,-0.55908 -7.47364,-0.571416 -9.81391,-0.02222 -1.86818,0.438403 -4.21038,1.808578 -5.81851,3.404443 -3.03988,3.01668 -5.20181,7.87725 -5.91937,13.310816 -0.43657,3.305823 -0.16458,11.204916 0.54486,15.838309 1.94452,12.699806 3.92218,17.29546 9.38006,21.799186 2.57873,2.127915 4.61416,3.16755 7.63755,3.900021 3.45314,0.836584 5.84812,0.693578 8.9903,-0.535368 1.07717,-0.421287 3.8336,-2.655583 5.20421,-4.218347 3.69984,-4.218497 4.63714,-6.592393 5.13124,-13.013159 0.24522,-3.18655 0.45383,-4.128633 1.28179,-5.777942 1.32983,-2.649021 2.97991,-4.227224 6.02023,-5.758305 2.09888,-1.056979 4.06562,-1.497132 6.33244,-1.416968 l 1.81651,0.06408 -1.14039,0.601514 c -1.46209,0.771229 -3.57473,3.108934 -4.51238,4.992976 -1.71922,3.454442 -2.45815,6.540981 -2.45614,10.253121 0.002,4.312737 0.68187,7.112197 2.43384,10.012826 0.88644,1.467611 1.27457,1.86576 2.89253,2.971912 3.54385,2.422835 8.17494,3.296409 13.78803,2.600358 1.37408,-0.170389 2.53814,-0.494245 3.5722,-1.010791 -0.0841,-0.328712 -0.10274,-0.786851 -0.10897,-0.98702 0.008,-0.339208 0.052,-0.670044 0.12772,-0.993221 -0.004,-0.01695 -0.007,-0.03374 -0.0112,-0.05064 -0.005,-0.02529 -0.0112,-0.05076 -0.0167,-0.07597 -0.003,4.81e-4 -0.005,0.0012 -0.008,0.0016 -0.0211,0.003 -0.0419,0.0084 -0.0623,0.01499 -0.021,0.0051 -0.041,0.0131 -0.0608,0.0217 -0.0154,0.0074 -0.0308,0.01487 -0.0461,0.02222 -0.0628,0.03076 -0.12474,0.06366 -0.19057,0.08733 -0.0623,0.02679 -0.1249,0.05224 -0.18956,0.07286 -0.0507,0.01712 -0.10182,0.03572 -0.15205,0.05426 -0.0562,0.01989 -0.11217,0.04056 -0.16624,0.06615 -0.0498,0.02105 -0.0991,0.04267 -0.14699,0.0677 -0.0475,0.02209 -0.0962,0.04192 -0.14242,0.06666 -0.042,0.02006 -0.0824,0.0431 -0.1262,0.05891 -0.0388,0.01602 -0.0743,0.03782 -0.11201,0.05581 -0.0358,0.01565 -0.0727,0.02894 -0.10897,0.04341 -0.035,0.01393 -0.0631,0.01476 -0.0836,0.0078 -0.1535,0.0739 -0.30495,0.141568 -0.45261,0.202055 -1.49076,0.610661 -5.02489,0.507191 -7.81139,-0.229444 -2.71033,-0.716498 -6.10965,-2.526283 -7.10436,-3.782198 -1.29968,-1.640971 -1.55492,-2.858679 -1.66344,-7.926131 -0.0537,-2.50617 0.006,-5.605856 0.13228,-6.888468 0.2121,-2.144229 0.32245,-2.513806 1.36847,-4.588867 1.43251,-2.841775 2.2036,-3.468226 4.4176,-3.591512 1.04563,-0.05822 1.98618,0.06079 3.24934,0.410827 0.97775,0.270952 2.12721,0.504931 2.55498,0.520382 0.71884,0.02595 0.78351,-0.02532 0.84692,-0.680062 0.10247,-1.058013 -0.96982,-3.116111 -2.29293,-4.402315 -1.32129,-1.284419 -3.93259,-2.799593 -5.80837,-3.36982 -0.95284,-0.289653 -2.04374,-0.394231 -4.07853,-0.392225 -2.60741,0.0029 -2.88858,0.04696 -4.58689,0.722437 -3.93282,1.564239 -7.73659,5.584113 -9.6056,10.150285 -0.63364,1.548015 -1.13782,4.236268 -1.15407,6.15673 -0.0187,2.202972 -0.26696,4.270571 -0.86366,7.176306 -0.84365,4.108324 -1.99123,5.915488 -5.3512,8.427909 -2.92057,2.183849 -4.43916,2.695901 -7.41251,2.500106 -3.14519,-0.207101 -4.999,-0.945634 -7.31165,-2.911967 -2.06461,-1.755428 -4.60557,-5.211491 -5.68724,-7.734928 -2.40756,-5.616599 -4.76217,-14.95821 -5.05774,-20.069576 -0.23719,-4.101662 0.61579,-11.002745 1.742,-14.099398 1.14237,-3.14105 2.29736,-5.04072 4.1652,-6.849194 2.85628,-2.765513 4.77014,-3.492727 9.12462,-3.465939 2.9731,0.01827 3.02053,0.02689 5.27821,0.928109 3.43916,1.372849 4.92914,2.615741 5.50275,4.588867 0.32007,1.100994 0.3347,1.483395 0.10289,2.71198 -0.54401,2.883151 -2.72103,4.870891 -6.32586,5.776391 -1.39731,0.350926 -1.57205,0.35158 -2.66749,0.0062 -0.64478,-0.203249 -1.41574,-0.560757 -1.7126,-0.794266 -0.73976,-0.581885 -2.03694,-3.18441 -1.86213,-3.735173 0.16311,-0.513962 1.01808,-0.944645 1.87581,-0.944645 0.64944,0 2.97363,0.603348 4.76327,1.237134 1.05842,0.374824 1.06829,0.373676 1.63151,-0.152446 1.41729,-1.323929 1.56968,-3.460809 0.36898,-5.169193 -1.10105,-1.566597 -4.39944,-2.80448 -7.47333,-2.80448 -1.23152,0 -1.68549,0.127125 -3.25999,0.915189 -1.78024,0.891033 -1.86284,0.968754 -3.14341,2.944007 -1.63188,2.517096 -2.05371,3.861109 -1.92244,6.128824 0.17552,3.031931 1.6334,5.067926 4.84386,6.763929 2.08582,1.101867 2.83871,1.311184 6.12666,1.706355 2.56795,0.308636 3.04961,0.189606 6.69888,-1.657263 2.50127,-1.265877 4.40881,-3.180319 6.15302,-6.176884 1.69743,-2.916199 1.95646,-3.704032 1.96248,-5.957259 0.004,-1.691548 -0.0747,-2.063312 -0.7638,-3.555855 -1.42988,-3.096745 -3.97682,-5.610631 -7.51135,-7.4150514 -2.87107,-1.4656748 -3.43372,-1.5642453 -7.99892,-1.398881 -6.92793,0.2509461 -9.24868,0.7635505 -13.80071,3.0478764 -2.74642,1.378218 -4.70815,3.007606 -6.66189,5.535579 -2.72693,3.528405 -4.02661,5.753861 -5.59093,9.569442 -2.03271,4.958061 -2.59319,8.145051 -3.05522,17.371032 -0.12668,2.529888 -0.38635,5.480092 -0.57679,6.555673 -0.19045,1.07557 -0.44339,2.555891 -0.56259,3.289205 -0.11919,0.733314 -0.41631,2.00899 -0.66041,2.834969 -0.50672,1.714644 -2.49285,5.692356 -3.05116,6.111255 -1.47247,1.104797 -4.22972,2.808396 -5.00047,3.089733 -1.33317,0.486642 -5.41952,0.252602 -7.92797,-0.454235 -4.15009,-1.16944 -7.06468,-2.813728 -8.7009,-4.908745 -0.52306,-0.669715 -1.44501,-2.344623 -2.04915,-3.72277 -1.44582,-3.298087 -1.49767,-4.410194 -0.32133,-6.879683 1.0473,-2.198578 2.0744,-2.965853 3.94472,-2.94659 0.68069,0.007 1.77309,0.193232 2.42675,0.413928 0.97229,0.328281 1.2449,0.536802 1.49973,1.1467 0.84031,2.01112 -0.253,3.960946 -1.97819,3.52795 -0.96936,-0.243291 -1.18766,-0.697014 -0.62392,-1.297079 0.41442,-0.441132 0.43801,-0.554025 0.16472,-0.780831 -0.41245,-0.342307 -1.18961,-0.133893 -2.02887,0.543637 -0.55422,0.447433 -0.66599,0.699299 -0.66599,1.494999 0,2.01128 1.44154,3.031014 3.71919,2.629813 1.59241,-0.280493 3.38546,-1.092331 4.25237,-1.925464 1.79988,-1.729744 2.04341,-5.274911 0.51799,-7.544242 -0.89518,-1.331744 -2.29698,-2.60793 -3.6016,-3.279903 -1.10708,-0.570217 -1.65982,-0.703914 -3.25795,-0.785482 -2.49936,-0.12761 -4.50304,0.236384 -6.80127,1.23455 -1.5465,0.671681 -2.09551,1.059075 -3.28381,2.318722 -2.17697,2.307717 -3.38569,5.005416 -4.09931,9.150862 -0.77359,4.493773 -1.9462,6.888283 -4.71613,9.62732 -1.42368,1.407804 -1.91218,1.727702 -4.06281,2.660302 -2.37179,1.028476 -2.5103,1.060582 -4.66647,1.066602 -2.53812,0.0074 -5.78578,-0.666833 -8.00247,-1.661397 -1.69352,-0.759832 -3.6937,-2.417824 -5.57269,-4.61884 -2.4795,-2.904441 -3.40539,-4.48923 -4.35678,-7.46001 -0.98461,-3.07449 -1.27935,-5.08871 -1.43486,-9.808186 -0.10188,-3.092059 -0.061,-3.564227 0.56157,-6.525184 0.97893,-4.655446 1.71628,-5.756152 5.00301,-7.469311 1.76337,-0.919126 3.57136,-1.085325 4.20422,-0.386023 0.79028,0.873254 1.08988,2.074467 1.00912,4.038513 -0.0598,1.454377 -0.0101,1.897559 0.21287,1.897559 0.52496,0 3.18031,-2.424834 3.64924,-3.332613 0.32837,-0.635682 0.45869,-1.307739 0.45869,-2.36213 0,-3.731082 -2.69028,-5.815053 -7.45104,-5.770707 -2.47197,0.02304 -3.41408,0.240665 -5.81495,1.34462 -2.2988,1.057029 -2.72379,1.357637 -5.11299,3.6158 -2.81564,2.661211 -4.04372,5.36365 -4.47234,9.84126 -0.22656,2.366892 0.26249,6.908257 1.14545,10.63656 0.92261,3.895745 1.14125,5.937145 0.76533,7.156669 -0.95946,3.112596 -2.57611,6.117449 -4.20372,7.815027 -1.38008,1.439378 -3.21838,2.362953 -6.08815,3.058211 -2.42493,0.587494 -4.37115,0.686792 -6.44242,0.328663 -0.70276,-0.12151 -1.82264,-0.314724 -2.48807,-0.429432 -1.72921,-0.298091 -4.15942,-1.37783 -5.61881,-2.495971 -0.69083,-0.529302 -2.19034,-1.879775 -3.33196,-3.001367 -1.96432,-1.929883 -2.15142,-2.198429 -3.49414,-5.000212 -1.53151,-3.19573 -2.31111,-5.633437 -3.57423,-11.182263 -1.40573,-6.175379 -1.30842,-11.509568 0.33299,-18.193722 0.92946,-3.784919 1.53746,-5.314931 3.29648,-8.304402 0.94229,-1.601442 1.61816,-2.419097 3.0679,-3.712435 1.21751,-1.086136 2.18653,-1.758127 2.80687,-1.946135 1.06015,-0.321278 5.4411,-0.331777 6.48753,-0.0155 2.19122,0.662181 2.15029,3.903574 -0.0836,6.653858 -1.35072,1.662693 -2.98898,2.560067 -4.93204,2.70061 -1.53368,0.110935 -2.00678,0.495884 -1.41358,1.151351 0.21698,0.23976 0.75612,0.491833 1.19766,0.559656 0.44154,0.06783 1.31453,0.213427 1.94018,0.324011 2.42988,0.429443 4.92681,-0.764742 7.50628,-3.590995 1.57568,-1.726424 3.02228,-4.410751 3.02228,-5.606376 0,-1.013889 -0.70298,-3.218888 -1.41256,-4.4297042 -0.8103,-1.3820126 -2.46037,-2.7747641 -4.50428,-3.8018351 -1.69357,-0.8511023 -1.8354,-0.8823107 -4.41354,-0.9694499 z M 403.68774,45.240649 c 0.34399,0 -1.41172,1.616499 -2.1936,2.019515 -1.06495,0.548957 -2.27721,0.539539 -3.42166,-0.02687 -0.88644,-0.438794 -2.03629,-1.456676 -1.84743,-1.635043 0.0514,-0.04855 0.79321,0.05972 1.64875,0.239779 1.7154,0.361028 3.61587,0.253832 4.88136,-0.274919 0.42438,-0.177324 0.84359,-0.322444 0.93258,-0.322461 z m -622.08344,0.02325 c 0.34399,0 -1.41171,1.616499 -2.19359,2.019515 -1.06495,0.548957 -2.27722,0.539526 -3.42167,-0.02687 -0.88644,-0.438794 -2.03629,-1.456675 -1.84743,-1.635042 0.0514,-0.04855 0.79321,0.05972 1.64875,0.239778 1.7154,0.361028 3.61587,0.253833 4.88136,-0.274918 0.42438,-0.177324 0.84359,-0.322454 0.93258,-0.322461 z M 40.30177,48.65026 c 0.343987,0 -1.412722,1.615981 -2.194611,2.018999 -1.064944,0.548915 -2.276717,0.539172 -3.421159,-0.02739 -0.886448,-0.438791 -2.036289,-1.455642 -1.847427,-1.634009 0.05141,-0.04855 0.793213,0.05868 1.648746,0.238745 1.715395,0.36103 3.61537,0.254868 4.880855,-0.273885 0.42439,-0.177322 0.844583,-0.322477 0.933596,-0.322461 z m -622.08344,0.02325 c 0.34398,0 -1.41272,1.61598 -2.19461,2.018998 -1.06494,0.548915 -2.27722,0.539185 -3.42166,-0.02739 -0.88645,-0.438791 -2.03578,-1.455642 -1.84692,-1.634009 0.0514,-0.04855 0.79321,0.05868 1.64874,0.238745 1.7154,0.36103 3.61537,0.254868 4.88086,-0.273885 0.42439,-0.177322 0.84457,-0.322467 0.93359,-0.322461 z" /></g></svg>
